G04 #@! TF.GenerationSoftware,KiCad,Pcbnew,5.1.6-c6e7f7d~86~ubuntu18.04.1*
G04 #@! TF.CreationDate,2020-05-20T23:40:00+02:00*
G04 #@! TF.ProjectId,Wasserhahn,57617373-6572-4686-9168-6e2e6b696361,rev?*
G04 #@! TF.SameCoordinates,PXb20a9d0PY6528180*
G04 #@! TF.FileFunction,Copper,L2,Bot*
G04 #@! TF.FilePolarity,Positive*
%FSLAX46Y46*%
G04 Gerber Fmt 4.6, Leading zero omitted, Abs format (unit mm)*
G04 Created by KiCad (PCBNEW 5.1.6-c6e7f7d~86~ubuntu18.04.1) date 2020-05-20 23:40:00*
%MOMM*%
%LPD*%
G01*
G04 APERTURE LIST*
G04 #@! TA.AperFunction,ComponentPad*
%ADD10R,2.600000X2.600000*%
G04 #@! TD*
G04 #@! TA.AperFunction,ComponentPad*
%ADD11C,2.600000*%
G04 #@! TD*
G04 #@! TA.AperFunction,SMDPad,CuDef*
%ADD12R,0.912500X0.850000*%
G04 #@! TD*
G04 #@! TA.AperFunction,SMDPad,CuDef*
%ADD13R,4.300000X4.300000*%
G04 #@! TD*
G04 #@! TA.AperFunction,ComponentPad*
%ADD14C,1.600000*%
G04 #@! TD*
G04 #@! TA.AperFunction,ComponentPad*
%ADD15O,1.600000X1.600000*%
G04 #@! TD*
G04 #@! TA.AperFunction,ComponentPad*
%ADD16R,1.200000X1.200000*%
G04 #@! TD*
G04 #@! TA.AperFunction,ComponentPad*
%ADD17C,1.200000*%
G04 #@! TD*
G04 #@! TA.AperFunction,ComponentPad*
%ADD18R,1.600000X1.600000*%
G04 #@! TD*
G04 #@! TA.AperFunction,ComponentPad*
%ADD19R,1.700000X1.700000*%
G04 #@! TD*
G04 #@! TA.AperFunction,ComponentPad*
%ADD20O,1.700000X1.700000*%
G04 #@! TD*
G04 #@! TA.AperFunction,ComponentPad*
%ADD21C,2.300000*%
G04 #@! TD*
G04 #@! TA.AperFunction,ComponentPad*
%ADD22R,2.000000X2.300000*%
G04 #@! TD*
G04 #@! TA.AperFunction,ViaPad*
%ADD23C,1.600000*%
G04 #@! TD*
G04 #@! TA.AperFunction,ViaPad*
%ADD24C,1.400000*%
G04 #@! TD*
G04 #@! TA.AperFunction,ViaPad*
%ADD25C,0.800000*%
G04 #@! TD*
G04 #@! TA.AperFunction,Conductor*
%ADD26C,1.000000*%
G04 #@! TD*
G04 #@! TA.AperFunction,Conductor*
%ADD27C,0.800000*%
G04 #@! TD*
G04 #@! TA.AperFunction,Conductor*
%ADD28C,0.250000*%
G04 #@! TD*
G04 #@! TA.AperFunction,Conductor*
%ADD29C,0.500000*%
G04 #@! TD*
G04 #@! TA.AperFunction,Conductor*
%ADD30C,2.000000*%
G04 #@! TD*
G04 APERTURE END LIST*
D10*
X-54356000Y10261600D03*
D11*
X-49356000Y10261600D03*
X-44356000Y10261600D03*
X-39356000Y10261600D03*
D12*
X-20670000Y56387900D03*
X-22170000Y56387900D03*
X-23670000Y56387900D03*
X-25170000Y56387900D03*
X-26670000Y56387900D03*
X-28170000Y56387900D03*
X-29670000Y56387900D03*
X-31170000Y56387900D03*
X-32670000Y56387900D03*
X-32670000Y38912900D03*
X-31170000Y38912900D03*
X-29670000Y38912900D03*
X-28170000Y38912900D03*
X-26670000Y38912900D03*
X-25170000Y38912900D03*
X-23670000Y38912900D03*
X-22170000Y38912900D03*
X-20670000Y38912900D03*
D13*
X-27250000Y48770400D03*
D14*
X-36195000Y23520400D03*
D15*
X-36195000Y33680400D03*
D16*
X-43815000Y28600400D03*
D17*
X-43815000Y30600400D03*
X-20860000Y64160400D03*
D16*
X-22860000Y64160400D03*
D18*
X-46990000Y65430400D03*
D14*
X-49490000Y65430400D03*
D10*
X-66040000Y10185400D03*
D11*
X-61040000Y10185400D03*
D19*
X-24130000Y28600400D03*
D20*
X-26670000Y28600400D03*
X-29210000Y28600400D03*
X-31750000Y28600400D03*
D19*
X-34290000Y71780400D03*
D20*
X-31750000Y71780400D03*
X-29210000Y71780400D03*
X-26670000Y71780400D03*
X-24130000Y71780400D03*
D19*
X-30480000Y8280400D03*
D20*
X-33020000Y8280400D03*
X-30480000Y10820400D03*
X-33020000Y10820400D03*
D21*
X-68065000Y52920400D03*
D22*
X-62865000Y23520400D03*
D21*
X-57865000Y23520400D03*
X-52665000Y52920400D03*
D14*
X-22860000Y18440400D03*
D15*
X-33020000Y18440400D03*
D14*
X-22860000Y23520400D03*
D15*
X-33020000Y23520400D03*
X-24739600Y65430400D03*
D14*
X-34899600Y65430400D03*
D15*
X-46990000Y40030400D03*
D14*
X-46990000Y50190400D03*
X-36830000Y61620400D03*
D15*
X-26670000Y61620400D03*
X-15240000Y13360400D03*
D14*
X-25400000Y13360400D03*
X-21590000Y31775400D03*
D15*
X-31750000Y31775400D03*
X-9144000Y31648400D03*
D14*
X-19304000Y31648400D03*
D16*
X-19685000Y23520400D03*
D17*
X-17685000Y23520400D03*
D19*
X-45669200Y57505600D03*
D20*
X-48209200Y57505600D03*
X-45669200Y60045600D03*
X-48209200Y60045600D03*
D23*
X-8255000Y23520400D03*
X-13970000Y64160400D03*
X-13970000Y75590400D03*
X-1778000Y23520400D03*
D24*
X-41275000Y50190400D03*
D23*
X-21590000Y36220400D03*
X-8432800Y36779200D03*
X-30073600Y16357600D03*
X-23114000Y33934400D03*
D25*
X-23114000Y33934400D03*
D23*
X-18542000Y33934400D03*
D26*
X-46990000Y41161770D02*
X-36830000Y51321770D01*
X-46990000Y40030400D02*
X-46990000Y41161770D01*
X-36830000Y51321770D02*
X-36830000Y56540400D01*
D27*
X-36677500Y56387900D02*
X-32670000Y56387900D01*
D28*
X-36830000Y56540400D02*
X-36677500Y56387900D01*
X-49370000Y10185400D02*
X-49370000Y11173991D01*
D26*
X-46990000Y12565400D02*
X-49370000Y10185400D01*
X-46990000Y40030400D02*
X-46990000Y12565400D01*
D28*
X-20670000Y63970400D02*
X-20860000Y64160400D01*
D27*
X-20670000Y56387900D02*
X-20670000Y63970400D01*
D26*
X-26670000Y75590400D02*
X-26670000Y71780400D01*
X-44370000Y8346923D02*
X-44370000Y10185400D01*
X-54370000Y10185400D02*
X-54370000Y8346923D01*
X-54370000Y8346923D02*
X-51763477Y5740400D01*
X-51763477Y5740400D02*
X-46990000Y5740400D01*
D28*
X-44450000Y8280400D02*
X-44436523Y8280400D01*
D26*
X-46990000Y5740400D02*
X-44450000Y8280400D01*
D28*
X-44436523Y8280400D02*
X-44370000Y8346923D01*
D26*
X-33020000Y8983319D02*
X-33020000Y10185400D01*
D27*
X-20670000Y56387900D02*
X-20670000Y54285400D01*
D29*
X-20670000Y54285400D02*
X-20955000Y54000400D01*
D26*
X-20955000Y54000400D02*
X-27305000Y54000400D01*
D27*
X-28170000Y54865400D02*
X-28170000Y56387900D01*
D26*
X-27305000Y54000400D02*
X-28170000Y54865400D01*
X-27305000Y54000400D02*
X-30480000Y54000400D01*
X-30480000Y54000400D02*
X-32670000Y51810400D01*
D29*
X-27250000Y51170400D02*
X-27305000Y51225400D01*
X-27250000Y48770400D02*
X-27250000Y51170400D01*
D26*
X-27305000Y51225400D02*
X-27305000Y54000400D01*
D27*
X-32670000Y38237900D02*
X-34687500Y36220400D01*
X-32670000Y38912900D02*
X-32670000Y38237900D01*
D26*
X-34687500Y36220400D02*
X-36195000Y36220400D01*
X-38735000Y34950400D02*
X-38735000Y30600400D01*
X-37465000Y36220400D02*
X-38735000Y34950400D01*
X-43815000Y30600400D02*
X-38735000Y30600400D01*
X-33750000Y30600400D02*
X-31750000Y28600400D01*
X-38735000Y30600400D02*
X-33750000Y30600400D01*
X-37465000Y36220400D02*
X-36195000Y36220400D01*
X-44436523Y10833877D02*
X-41910000Y13360400D01*
X-35560000Y13360400D02*
X-33020000Y10820400D01*
X-41910000Y13360400D02*
X-35560000Y13360400D01*
D28*
X-26670000Y71780400D02*
X-26670000Y72982481D01*
D26*
X-26670000Y72982481D02*
X-26670000Y75590400D01*
X-20860000Y64160400D02*
X-14514999Y64160400D01*
D28*
X-14514999Y64160400D02*
X-13970000Y64160400D01*
X-14685000Y23520400D02*
X-14010009Y23520400D01*
D26*
X-1778000Y23774400D02*
X-1778000Y3454400D01*
X-68065000Y52920400D02*
X-68065000Y60230400D01*
X-62865000Y65430400D02*
X-49490000Y65430400D01*
X-68065000Y60230400D02*
X-62865000Y65430400D01*
D28*
X-32670000Y51810400D02*
X-32670000Y46030400D01*
D26*
X-49490000Y65430400D02*
X-49490000Y74995400D01*
X-48895000Y75590400D02*
X-26670000Y75590400D01*
X-49490000Y74995400D02*
X-48895000Y75590400D01*
X-14685000Y23520400D02*
X-8255000Y23520400D01*
X-1778000Y3454400D02*
X-3556000Y1676400D01*
X-42926000Y1676400D02*
X-46990000Y5740400D01*
X-3556000Y1676400D02*
X-42926000Y1676400D01*
X-26670000Y75590400D02*
X-1778000Y75590400D01*
X-1778000Y34315400D02*
X-1778000Y23520400D01*
X-1778000Y75590400D02*
X-1778000Y34315400D01*
X-28170000Y38912900D02*
X-28170000Y41680000D01*
X-28191200Y41701200D02*
X-32670000Y41701200D01*
D28*
X-28170000Y41680000D02*
X-28191200Y41701200D01*
D27*
X-32670000Y51810400D02*
X-32670000Y41701200D01*
X-32670000Y41701200D02*
X-32670000Y38912900D01*
X-17685000Y23520400D02*
X-14685000Y23520400D01*
D26*
X-36830000Y61620400D02*
X-36830000Y65430400D01*
X-35390000Y71780400D02*
X-34290000Y71780400D01*
X-36830000Y70340400D02*
X-35390000Y71780400D01*
X-36830000Y65430400D02*
X-36830000Y70340400D01*
X-24130000Y24790400D02*
X-22860000Y23520400D01*
X-24130000Y28600400D02*
X-24130000Y24790400D01*
D29*
X-20670000Y38237900D02*
X-20670000Y38912900D01*
D26*
X-23991370Y23520400D02*
X-25400000Y22111770D01*
X-22860000Y23520400D02*
X-23991370Y23520400D01*
X-25400000Y22111770D02*
X-25400000Y13360400D01*
X-22860000Y23520400D02*
X-19685000Y23520400D01*
X-46990000Y51460400D02*
X-46990000Y50190400D01*
X-46990000Y50190400D02*
X-41275000Y50190400D01*
D29*
X-20955000Y36220400D02*
X-20670000Y35935400D01*
D28*
X-21590000Y36220400D02*
X-20955000Y36220400D01*
D26*
X-20670000Y31705400D02*
X-20670000Y35935400D01*
D27*
X-20670000Y35935400D02*
X-20670000Y38237900D01*
D26*
X-46990000Y65430400D02*
X-36830000Y65430400D01*
X-24130000Y28600400D02*
X-20955000Y28600400D01*
D29*
X-20955000Y31420400D02*
X-20670000Y31705400D01*
D26*
X-20955000Y28600400D02*
X-20955000Y31420400D01*
X-21310000Y31775400D02*
X-20955000Y31420400D01*
X-21590000Y31775400D02*
X-21310000Y31775400D01*
X-34899600Y65430400D02*
X-36830000Y65430400D01*
X-19532000Y31420400D02*
X-19304000Y31648400D01*
X-20955000Y31420400D02*
X-19532000Y31420400D01*
X-45669200Y56184800D02*
X-43967400Y54483000D01*
X-45669200Y57505600D02*
X-45669200Y56184800D01*
X-36830000Y61620400D02*
X-43967400Y54483000D01*
X-43967400Y54483000D02*
X-46990000Y51460400D01*
X-24130000Y65430400D02*
X-22860000Y64160400D01*
X-24739600Y65430400D02*
X-24130000Y65430400D01*
X-22860000Y64160400D02*
X-22860000Y65024000D01*
X-22860000Y65024000D02*
X-21996400Y65887600D01*
X-21996400Y65887600D02*
X-8432800Y65887600D01*
X-8432800Y65887600D02*
X-8432800Y36779200D01*
X-30480000Y10820400D02*
X-30480000Y14274800D01*
X-30073600Y14681200D02*
X-30480000Y14274800D01*
X-30073600Y16357600D02*
X-30073600Y14681200D01*
X-31699200Y16306800D02*
X-30937200Y16306800D01*
X-33020000Y18186400D02*
X-33020000Y16256000D01*
X-30124400Y16306800D02*
X-30073600Y16357600D01*
X-32918400Y16306800D02*
X-30124400Y16306800D01*
X-33020000Y18440400D02*
X-34505000Y18440400D01*
X-43815000Y27750400D02*
X-43815000Y23520400D01*
X-38735000Y18440400D02*
X-33020000Y18440400D01*
X-43815000Y23520400D02*
X-38735000Y18440400D01*
D30*
X-66040000Y21595400D02*
X-64115000Y23520400D01*
X-66040000Y10185400D02*
X-66040000Y21595400D01*
X-62865000Y23520400D02*
X-64115000Y23520400D01*
X-57865000Y13360400D02*
X-57865000Y23520400D01*
X-61040000Y10185400D02*
X-57865000Y13360400D01*
D27*
X-25170000Y38912900D02*
X-25170000Y33910400D01*
D26*
X-25170000Y33910400D02*
X-26670000Y32410400D01*
X-26670000Y32410400D02*
X-26670000Y28600400D01*
D27*
X-26670000Y38912900D02*
X-26670000Y35585400D01*
D26*
X-26670000Y35585400D02*
X-29210000Y33045400D01*
X-29210000Y33045400D02*
X-29210000Y28600400D01*
D27*
X-31170000Y56387900D02*
X-31170000Y68660400D01*
D26*
X-31750000Y69240400D02*
X-31750000Y71780400D01*
X-31170000Y68660400D02*
X-31750000Y69240400D01*
D27*
X-29670000Y56387900D02*
X-29670000Y68780400D01*
D26*
X-29210000Y69240400D02*
X-29210000Y71780400D01*
X-29670000Y68780400D02*
X-29210000Y69240400D01*
X-36195000Y23520400D02*
X-36195000Y22250400D01*
X-36195000Y22250400D02*
X-34925000Y20980400D01*
X-34925000Y20980400D02*
X-31750000Y20980400D01*
X-31750000Y20980400D02*
X-27940000Y17170400D01*
X-30480000Y8280400D02*
X-27940000Y8280400D01*
X-27940000Y17170400D02*
X-27940000Y8280400D01*
X-27940000Y8280400D02*
X-15240000Y8280400D01*
X-15240000Y13360400D02*
X-15240000Y8280400D01*
D27*
X-31170000Y38912900D02*
X-31170000Y37308400D01*
X-34798000Y33680400D02*
X-36195000Y33680400D01*
X-31170000Y37308400D02*
X-34798000Y33680400D01*
X-22860000Y18440400D02*
X-6400800Y18440400D01*
X-6400800Y18440400D02*
X-6197600Y18643600D01*
X-6197600Y18643600D02*
X-6197600Y67462400D01*
X-6197600Y67462400D02*
X-6400800Y67665600D01*
X-6400800Y67665600D02*
X-25501600Y67665600D01*
X-25501600Y67665600D02*
X-26619200Y66548000D01*
X-26771600Y66548000D02*
X-26771600Y64312800D01*
X-26619200Y64312800D02*
X-25654000Y63347600D01*
X-25654000Y63347600D02*
X-25400000Y63347600D01*
X-25400000Y63347600D02*
X-24384000Y62331600D01*
X-24384000Y62331600D02*
X-24384000Y60502800D01*
X-25170000Y59716800D02*
X-25170000Y56387900D01*
X-24384000Y60502800D02*
X-25170000Y59716800D01*
X-26670000Y56387900D02*
X-26670000Y61620400D01*
X-27801370Y61620400D02*
X-26670000Y61620400D01*
X-28321000Y62140030D02*
X-27801370Y61620400D01*
X-28321000Y66954400D02*
X-28321000Y62140030D01*
X-27940000Y67335400D02*
X-28321000Y66954400D01*
X-4445000Y69240400D02*
X-26670000Y69240400D01*
D26*
X-4318000Y69113400D02*
X-4445000Y69240400D01*
X-4572000Y4470400D02*
X-4318000Y4724400D01*
X-4318000Y4724400D02*
X-4318000Y69113400D01*
X-39370000Y10185400D02*
X-39370000Y4470400D01*
X-39370000Y4470400D02*
X-4572000Y4470400D01*
X-27940000Y67970400D02*
X-26670000Y69240400D01*
X-27940000Y67335400D02*
X-27940000Y67970400D01*
D27*
X-29670000Y38912900D02*
X-29670000Y35506400D01*
D26*
X-29670000Y35506400D02*
X-30178000Y35506400D01*
X-31750000Y33934400D02*
X-31750000Y32119410D01*
X-30178000Y35506400D02*
X-31750000Y33934400D01*
D27*
X-22170000Y38912900D02*
X-22170000Y38180400D01*
X-22170000Y38180400D02*
X-22170000Y37926400D01*
X-22170000Y37926400D02*
X-22606000Y37490400D01*
X-22606000Y37490400D02*
X-22860000Y37490400D01*
X-22860000Y37490400D02*
X-23368000Y36982400D01*
X-23368000Y36982400D02*
X-23368000Y34188400D01*
X-23368000Y34188400D02*
X-23114000Y33934400D01*
D26*
X-9203001Y31648400D02*
X-9144000Y31648400D01*
X-9144000Y33934400D02*
X-9144000Y32119410D01*
X-9144000Y33934400D02*
X-18542000Y33934400D01*
X-33020000Y23520400D02*
X-33020000Y25146000D01*
X-33020000Y25146000D02*
X-35204400Y27330400D01*
X-36220400Y28346400D02*
X-42713930Y28346400D01*
X-35204400Y27330400D02*
X-36220400Y28346400D01*
D27*
X-42713930Y28346400D02*
X-42855351Y28346400D01*
X-43359361Y28850410D02*
X-43815000Y28850410D01*
X-42855351Y28346400D02*
X-43359361Y28850410D01*
D26*
X-52665000Y52920400D02*
X-52665000Y56199400D01*
X-51358800Y57505600D02*
X-48209200Y57505600D01*
X-52665000Y56199400D02*
X-51358800Y57505600D01*
M02*
