%FSLAX45Y45*%
G04 Gerber Fmt 4.5, Leading zero omitted, Abs format (unit mm)*
G04 Created by KiCad (PCBNEW 5.1.6-c6e7f7d~86~ubuntu18.04.1) date 2020-05-20 23:39:53*
%MOMM*%
%LPD*%
G01*
G04 APERTURE LIST*
%TA.AperFunction,Profile*%
%ADD10C,0.050000*%
%TD*%
%ADD11C,0.200000*%
%ADD12C,0.300000*%
G04 APERTURE END LIST*
D10*
X-7620000Y2540D02*
X0Y2540D01*
X0Y7813040D02*
X0Y2540D01*
X-7620000Y7813040D02*
X0Y7813040D01*
X-7620000Y2540D02*
X-7620000Y7813040D01*
D11*
X-2331400Y3413440D02*
X-2291400Y3373440D01*
X-2291400Y3413440D02*
X-2331400Y3373440D01*
X-2256000Y6416040D02*
G75*
G03*
X-2256000Y6416040I-30000J0D01*
G01*
X-2056000Y6416040D02*
G75*
G03*
X-2056000Y6416040I-30000J0D01*
G01*
X-1938500Y2352040D02*
G75*
G03*
X-1938500Y2352040I-30000J0D01*
G01*
X-1738500Y2352040D02*
G75*
G03*
X-1738500Y2352040I-30000J0D01*
G01*
X-4351500Y3060040D02*
G75*
G03*
X-4351500Y3060040I-30000J0D01*
G01*
X-4351500Y2860040D02*
G75*
G03*
X-4351500Y2860040I-30000J0D01*
G01*
X-4127500Y5059040D02*
X-4127500Y4979040D01*
X-4167500Y5019040D02*
X-4087500Y5019040D01*
X-3007360Y1675760D02*
X-3007360Y1595760D01*
X-3047360Y1635760D02*
X-2967360Y1635760D01*
X-2311400Y3433440D02*
X-2311400Y3353440D01*
X-2351400Y3393440D02*
X-2271400Y3393440D01*
X-2159000Y3662040D02*
X-2159000Y3582040D01*
X-2199000Y3622040D02*
X-2119000Y3622040D01*
X-1854200Y3433440D02*
X-1854200Y3353440D01*
X-1894200Y3393440D02*
X-1814200Y3393440D01*
X-1397000Y7599040D02*
X-1397000Y7519040D01*
X-1437000Y7559040D02*
X-1357000Y7559040D01*
X-1397000Y6456040D02*
X-1397000Y6376040D01*
X-1437000Y6416040D02*
X-1357000Y6416040D01*
X-843280Y3717920D02*
X-843280Y3637920D01*
X-883280Y3677920D02*
X-803280Y3677920D01*
X-825500Y2392040D02*
X-825500Y2312040D01*
X-865500Y2352040D02*
X-785500Y2352040D01*
X-177800Y2392040D02*
X-177800Y2312040D01*
X-217800Y2352040D02*
X-137800Y2352040D01*
X-3683000Y6202040D02*
X-3683000Y6122040D01*
X-3723000Y6162040D02*
X-3643000Y6162040D01*
X-2667000Y6202040D02*
X-2667000Y6122040D01*
X-2707000Y6162040D02*
X-2627000Y6162040D01*
X-2540000Y1376040D02*
X-2540000Y1296040D01*
X-2580000Y1336040D02*
X-2500000Y1336040D01*
X-1524000Y1376040D02*
X-1524000Y1296040D01*
X-1564000Y1336040D02*
X-1484000Y1336040D01*
X-4949000Y6583040D02*
X-4949000Y6503040D01*
X-4989000Y6543040D02*
X-4909000Y6543040D01*
X-4699000Y6583040D02*
X-4699000Y6503040D01*
X-4739000Y6543040D02*
X-4659000Y6543040D01*
X-3302000Y1884040D02*
X-3302000Y1804040D01*
X-3342000Y1844040D02*
X-3262000Y1844040D01*
X-2286000Y1884040D02*
X-2286000Y1804040D01*
X-2326000Y1844040D02*
X-2246000Y1844040D01*
X-3175000Y3217540D02*
X-3175000Y3137540D01*
X-3215000Y3177540D02*
X-3135000Y3177540D01*
X-2159000Y3217540D02*
X-2159000Y3137540D01*
X-2199000Y3177540D02*
X-2119000Y3177540D01*
X-3302000Y2392040D02*
X-3302000Y2312040D01*
X-3342000Y2352040D02*
X-3262000Y2352040D01*
X-2286000Y2392040D02*
X-2286000Y2312040D01*
X-2326000Y2352040D02*
X-2246000Y2352040D01*
X-3619500Y3408040D02*
X-3619500Y3328040D01*
X-3659500Y3368040D02*
X-3579500Y3368040D01*
X-3619500Y2392040D02*
X-3619500Y2312040D01*
X-3659500Y2352040D02*
X-3579500Y2352040D01*
X-3489960Y6583040D02*
X-3489960Y6503040D01*
X-3529960Y6543040D02*
X-3449960Y6543040D01*
X-2473960Y6583040D02*
X-2473960Y6503040D01*
X-2513960Y6543040D02*
X-2433960Y6543040D01*
X-1930400Y3204840D02*
X-1930400Y3124840D01*
X-1970400Y3164840D02*
X-1890400Y3164840D01*
X-914400Y3204840D02*
X-914400Y3124840D01*
X-954400Y3164840D02*
X-874400Y3164840D01*
X-4699000Y5059040D02*
X-4699000Y4979040D01*
X-4739000Y5019040D02*
X-4659000Y5019040D01*
X-4699000Y4043040D02*
X-4699000Y3963040D01*
X-4739000Y4003040D02*
X-4659000Y4003040D01*
X-3266644Y1046684D02*
X-3266644Y1117396D01*
X-3337356Y1117396D01*
X-3337356Y1046684D01*
X-3266644Y1046684D01*
X-3266644Y792684D02*
X-3266644Y863396D01*
X-3337356Y863396D01*
X-3337356Y792684D01*
X-3266644Y792684D01*
X-3012644Y1046684D02*
X-3012644Y1117396D01*
X-3083356Y1117396D01*
X-3083356Y1046684D01*
X-3012644Y1046684D01*
X-3012644Y792684D02*
X-3012644Y863396D01*
X-3083356Y863396D01*
X-3083356Y792684D01*
X-3012644Y792684D01*
X-6771144Y5256684D02*
X-6771144Y5327396D01*
X-6841856Y5327396D01*
X-6841856Y5256684D01*
X-6771144Y5256684D01*
X-6251144Y2316684D02*
X-6251144Y2387396D01*
X-6321856Y2387396D01*
X-6321856Y2316684D01*
X-6251144Y2316684D01*
X-5751144Y2316684D02*
X-5751144Y2387396D01*
X-5821856Y2387396D01*
X-5821856Y2316684D01*
X-5751144Y2316684D01*
X-5231144Y5256684D02*
X-5231144Y5327396D01*
X-5301856Y5327396D01*
X-5301856Y5256684D01*
X-5231144Y5256684D01*
X-4785564Y5969204D02*
X-4785564Y6039916D01*
X-4856276Y6039916D01*
X-4856276Y5969204D01*
X-4785564Y5969204D01*
X-4785564Y5715204D02*
X-4785564Y5785916D01*
X-4856276Y5785916D01*
X-4856276Y5715204D01*
X-4785564Y5715204D01*
X-4531564Y5969204D02*
X-4531564Y6039916D01*
X-4602276Y6039916D01*
X-4602276Y5969204D01*
X-4531564Y5969204D01*
X-4531564Y5715204D02*
X-4531564Y5785916D01*
X-4602276Y5785916D01*
X-4602276Y5715204D01*
X-4531564Y5715204D01*
X-3139644Y2824684D02*
X-3139644Y2895396D01*
X-3210356Y2895396D01*
X-3210356Y2824684D01*
X-3139644Y2824684D01*
X-2885644Y2824684D02*
X-2885644Y2895396D01*
X-2956356Y2895396D01*
X-2956356Y2824684D01*
X-2885644Y2824684D01*
X-2631644Y2824684D02*
X-2631644Y2895396D01*
X-2702356Y2895396D01*
X-2702356Y2824684D01*
X-2631644Y2824684D01*
X-2377644Y2824684D02*
X-2377644Y2895396D01*
X-2448356Y2895396D01*
X-2448356Y2824684D01*
X-2377644Y2824684D01*
X-3393644Y7142684D02*
X-3393644Y7213396D01*
X-3464356Y7213396D01*
X-3464356Y7142684D01*
X-3393644Y7142684D01*
X-3139644Y7142684D02*
X-3139644Y7213396D01*
X-3210356Y7213396D01*
X-3210356Y7142684D01*
X-3139644Y7142684D01*
X-2885644Y7142684D02*
X-2885644Y7213396D01*
X-2956356Y7213396D01*
X-2956356Y7142684D01*
X-2885644Y7142684D01*
X-2631644Y7142684D02*
X-2631644Y7213396D01*
X-2702356Y7213396D01*
X-2702356Y7142684D01*
X-2631644Y7142684D01*
X-2377644Y7142684D02*
X-2377644Y7213396D01*
X-2448356Y7213396D01*
X-2448356Y7142684D01*
X-2377644Y7142684D01*
X-6604000Y953540D02*
X-6539000Y1018540D01*
X-6604000Y1083540D01*
X-6669000Y1018540D01*
X-6604000Y953540D01*
X-6104000Y953540D02*
X-6039000Y1018540D01*
X-6104000Y1083540D01*
X-6169000Y1018540D01*
X-6104000Y953540D01*
X-5435600Y961160D02*
X-5370600Y1026160D01*
X-5435600Y1091160D01*
X-5500600Y1026160D01*
X-5435600Y961160D01*
X-4935600Y961160D02*
X-4870600Y1026160D01*
X-4935600Y1091160D01*
X-5000600Y1026160D01*
X-4935600Y961160D01*
X-4435600Y961160D02*
X-4370600Y1026160D01*
X-4435600Y1091160D01*
X-4500600Y1026160D01*
X-4435600Y961160D01*
X-3935600Y961160D02*
X-3870600Y1026160D01*
X-3935600Y1091160D01*
X-4000600Y1026160D01*
X-3935600Y961160D01*
D12*
X-7336072Y-715714D02*
X-7336072Y-415714D01*
X-7264643Y-415714D01*
X-7221786Y-430000D01*
X-7193214Y-458571D01*
X-7178929Y-487143D01*
X-7164643Y-544286D01*
X-7164643Y-587143D01*
X-7178929Y-644286D01*
X-7193214Y-672857D01*
X-7221786Y-701428D01*
X-7264643Y-715714D01*
X-7336072Y-715714D01*
X-7036072Y-715714D02*
X-7036072Y-515714D01*
X-7036072Y-572857D02*
X-7021786Y-544286D01*
X-7007500Y-530000D01*
X-6978929Y-515714D01*
X-6950357Y-515714D01*
X-6850357Y-715714D02*
X-6850357Y-515714D01*
X-6850357Y-415714D02*
X-6864643Y-430000D01*
X-6850357Y-444286D01*
X-6836072Y-430000D01*
X-6850357Y-415714D01*
X-6850357Y-444286D01*
X-6664643Y-715714D02*
X-6693214Y-701428D01*
X-6707500Y-672857D01*
X-6707500Y-415714D01*
X-6507500Y-715714D02*
X-6536072Y-701428D01*
X-6550357Y-672857D01*
X-6550357Y-415714D01*
X-6164643Y-715714D02*
X-6164643Y-415714D01*
X-6064643Y-630000D01*
X-5964643Y-415714D01*
X-5964643Y-715714D01*
X-5693214Y-715714D02*
X-5693214Y-558571D01*
X-5707500Y-530000D01*
X-5736072Y-515714D01*
X-5793214Y-515714D01*
X-5821786Y-530000D01*
X-5693214Y-701428D02*
X-5721786Y-715714D01*
X-5793214Y-715714D01*
X-5821786Y-701428D01*
X-5836072Y-672857D01*
X-5836072Y-644286D01*
X-5821786Y-615714D01*
X-5793214Y-601429D01*
X-5721786Y-601429D01*
X-5693214Y-587143D01*
X-5550357Y-515714D02*
X-5550357Y-815714D01*
X-5550357Y-530000D02*
X-5521786Y-515714D01*
X-5464643Y-515714D01*
X-5436072Y-530000D01*
X-5421786Y-544286D01*
X-5407500Y-572857D01*
X-5407500Y-658571D01*
X-5421786Y-687143D01*
X-5436072Y-701428D01*
X-5464643Y-715714D01*
X-5521786Y-715714D01*
X-5550357Y-701428D01*
X-5278929Y-687143D02*
X-5264643Y-701428D01*
X-5278929Y-715714D01*
X-5293214Y-701428D01*
X-5278929Y-687143D01*
X-5278929Y-715714D01*
X-5278929Y-530000D02*
X-5264643Y-544286D01*
X-5278929Y-558571D01*
X-5293214Y-544286D01*
X-5278929Y-530000D01*
X-5278929Y-558571D01*
X-7662500Y-1190000D02*
X-7622500Y-1230000D01*
X-7622500Y-1190000D02*
X-7662500Y-1230000D01*
X-7278929Y-1045714D02*
X-7250357Y-1045714D01*
X-7221786Y-1060000D01*
X-7207500Y-1074286D01*
X-7193214Y-1102857D01*
X-7178929Y-1160000D01*
X-7178929Y-1231429D01*
X-7193214Y-1288571D01*
X-7207500Y-1317143D01*
X-7221786Y-1331429D01*
X-7250357Y-1345714D01*
X-7278929Y-1345714D01*
X-7307500Y-1331429D01*
X-7321786Y-1317143D01*
X-7336072Y-1288571D01*
X-7350357Y-1231429D01*
X-7350357Y-1160000D01*
X-7336072Y-1102857D01*
X-7321786Y-1074286D01*
X-7307500Y-1060000D01*
X-7278929Y-1045714D01*
X-7050357Y-1317143D02*
X-7036072Y-1331429D01*
X-7050357Y-1345714D01*
X-7064643Y-1331429D01*
X-7050357Y-1317143D01*
X-7050357Y-1345714D01*
X-6778929Y-1145714D02*
X-6778929Y-1345714D01*
X-6850357Y-1031428D02*
X-6921786Y-1245714D01*
X-6736072Y-1245714D01*
X-6564643Y-1045714D02*
X-6536072Y-1045714D01*
X-6507500Y-1060000D01*
X-6493214Y-1074286D01*
X-6478929Y-1102857D01*
X-6464643Y-1160000D01*
X-6464643Y-1231429D01*
X-6478929Y-1288571D01*
X-6493214Y-1317143D01*
X-6507500Y-1331429D01*
X-6536072Y-1345714D01*
X-6564643Y-1345714D01*
X-6593214Y-1331429D01*
X-6607500Y-1317143D01*
X-6621786Y-1288571D01*
X-6636072Y-1231429D01*
X-6636072Y-1160000D01*
X-6621786Y-1102857D01*
X-6607500Y-1074286D01*
X-6593214Y-1060000D01*
X-6564643Y-1045714D01*
X-6336072Y-1345714D02*
X-6336072Y-1145714D01*
X-6336072Y-1174286D02*
X-6321786Y-1160000D01*
X-6293214Y-1145714D01*
X-6250357Y-1145714D01*
X-6221786Y-1160000D01*
X-6207500Y-1188571D01*
X-6207500Y-1345714D01*
X-6207500Y-1188571D02*
X-6193214Y-1160000D01*
X-6164643Y-1145714D01*
X-6121786Y-1145714D01*
X-6093214Y-1160000D01*
X-6078929Y-1188571D01*
X-6078929Y-1345714D01*
X-5936072Y-1345714D02*
X-5936072Y-1145714D01*
X-5936072Y-1174286D02*
X-5921786Y-1160000D01*
X-5893214Y-1145714D01*
X-5850357Y-1145714D01*
X-5821786Y-1160000D01*
X-5807500Y-1188571D01*
X-5807500Y-1345714D01*
X-5807500Y-1188571D02*
X-5793214Y-1160000D01*
X-5764643Y-1145714D01*
X-5721786Y-1145714D01*
X-5693214Y-1160000D01*
X-5678929Y-1188571D01*
X-5678929Y-1345714D01*
X-5093214Y-1031428D02*
X-5350357Y-1417143D01*
X-4707500Y-1045714D02*
X-4678929Y-1045714D01*
X-4650357Y-1060000D01*
X-4636072Y-1074286D01*
X-4621786Y-1102857D01*
X-4607500Y-1160000D01*
X-4607500Y-1231429D01*
X-4621786Y-1288571D01*
X-4636072Y-1317143D01*
X-4650357Y-1331429D01*
X-4678929Y-1345714D01*
X-4707500Y-1345714D01*
X-4736072Y-1331429D01*
X-4750357Y-1317143D01*
X-4764643Y-1288571D01*
X-4778929Y-1231429D01*
X-4778929Y-1160000D01*
X-4764643Y-1102857D01*
X-4750357Y-1074286D01*
X-4736072Y-1060000D01*
X-4707500Y-1045714D01*
X-4478929Y-1317143D02*
X-4464643Y-1331429D01*
X-4478929Y-1345714D01*
X-4493214Y-1331429D01*
X-4478929Y-1317143D01*
X-4478929Y-1345714D01*
X-4278929Y-1045714D02*
X-4250357Y-1045714D01*
X-4221786Y-1060000D01*
X-4207500Y-1074286D01*
X-4193214Y-1102857D01*
X-4178929Y-1160000D01*
X-4178929Y-1231429D01*
X-4193214Y-1288571D01*
X-4207500Y-1317143D01*
X-4221786Y-1331429D01*
X-4250357Y-1345714D01*
X-4278929Y-1345714D01*
X-4307500Y-1331429D01*
X-4321786Y-1317143D01*
X-4336072Y-1288571D01*
X-4350357Y-1231429D01*
X-4350357Y-1160000D01*
X-4336072Y-1102857D01*
X-4321786Y-1074286D01*
X-4307500Y-1060000D01*
X-4278929Y-1045714D01*
X-3893214Y-1345714D02*
X-4064643Y-1345714D01*
X-3978929Y-1345714D02*
X-3978929Y-1045714D01*
X-4007500Y-1088571D01*
X-4036072Y-1117143D01*
X-4064643Y-1131429D01*
X-3636072Y-1045714D02*
X-3693214Y-1045714D01*
X-3721786Y-1060000D01*
X-3736072Y-1074286D01*
X-3764643Y-1117143D01*
X-3778929Y-1174286D01*
X-3778929Y-1288571D01*
X-3764643Y-1317143D01*
X-3750357Y-1331429D01*
X-3721786Y-1345714D01*
X-3664643Y-1345714D01*
X-3636072Y-1331429D01*
X-3621786Y-1317143D01*
X-3607500Y-1288571D01*
X-3607500Y-1217143D01*
X-3621786Y-1188571D01*
X-3636072Y-1174286D01*
X-3664643Y-1160000D01*
X-3721786Y-1160000D01*
X-3750357Y-1174286D01*
X-3764643Y-1188571D01*
X-3778929Y-1217143D01*
X-3493214Y-1045714D02*
X-3493214Y-1102857D01*
X-3378929Y-1045714D02*
X-3378929Y-1102857D01*
X-2936072Y-1460000D02*
X-2950357Y-1445714D01*
X-2978929Y-1402857D01*
X-2993214Y-1374286D01*
X-3007500Y-1331429D01*
X-3021786Y-1260000D01*
X-3021786Y-1202857D01*
X-3007500Y-1131429D01*
X-2993214Y-1088571D01*
X-2978929Y-1060000D01*
X-2950357Y-1017143D01*
X-2936072Y-1002857D01*
X-2664643Y-1345714D02*
X-2836072Y-1345714D01*
X-2750357Y-1345714D02*
X-2750357Y-1045714D01*
X-2778929Y-1088571D01*
X-2807500Y-1117143D01*
X-2836072Y-1131429D01*
X-2307500Y-1345714D02*
X-2307500Y-1045714D01*
X-2178929Y-1345714D02*
X-2178929Y-1188571D01*
X-2193214Y-1160000D01*
X-2221786Y-1145714D01*
X-2264643Y-1145714D01*
X-2293214Y-1160000D01*
X-2307500Y-1174286D01*
X-1993214Y-1345714D02*
X-2021786Y-1331429D01*
X-2036072Y-1317143D01*
X-2050357Y-1288571D01*
X-2050357Y-1202857D01*
X-2036072Y-1174286D01*
X-2021786Y-1160000D01*
X-1993214Y-1145714D01*
X-1950357Y-1145714D01*
X-1921786Y-1160000D01*
X-1907500Y-1174286D01*
X-1893214Y-1202857D01*
X-1893214Y-1288571D01*
X-1907500Y-1317143D01*
X-1921786Y-1331429D01*
X-1950357Y-1345714D01*
X-1993214Y-1345714D01*
X-1721786Y-1345714D02*
X-1750357Y-1331429D01*
X-1764643Y-1302857D01*
X-1764643Y-1045714D01*
X-1493214Y-1331429D02*
X-1521786Y-1345714D01*
X-1578929Y-1345714D01*
X-1607500Y-1331429D01*
X-1621786Y-1302857D01*
X-1621786Y-1188571D01*
X-1607500Y-1160000D01*
X-1578929Y-1145714D01*
X-1521786Y-1145714D01*
X-1493214Y-1160000D01*
X-1478929Y-1188571D01*
X-1478929Y-1217143D01*
X-1621786Y-1245714D01*
X-1378929Y-1460000D02*
X-1364643Y-1445714D01*
X-1336072Y-1402857D01*
X-1321786Y-1374286D01*
X-1307500Y-1331429D01*
X-1293214Y-1260000D01*
X-1293214Y-1202857D01*
X-1307500Y-1131429D01*
X-1321786Y-1088571D01*
X-1336072Y-1060000D01*
X-1364643Y-1017143D01*
X-1378929Y-1002857D01*
X-7622500Y-1606000D02*
G75*
G03*
X-7622500Y-1606000I-30000J0D01*
G01*
X-7278929Y-1441714D02*
X-7250357Y-1441714D01*
X-7221786Y-1456000D01*
X-7207500Y-1470286D01*
X-7193214Y-1498857D01*
X-7178929Y-1556000D01*
X-7178929Y-1627428D01*
X-7193214Y-1684571D01*
X-7207500Y-1713143D01*
X-7221786Y-1727428D01*
X-7250357Y-1741714D01*
X-7278929Y-1741714D01*
X-7307500Y-1727428D01*
X-7321786Y-1713143D01*
X-7336072Y-1684571D01*
X-7350357Y-1627428D01*
X-7350357Y-1556000D01*
X-7336072Y-1498857D01*
X-7321786Y-1470286D01*
X-7307500Y-1456000D01*
X-7278929Y-1441714D01*
X-7050357Y-1713143D02*
X-7036072Y-1727428D01*
X-7050357Y-1741714D01*
X-7064643Y-1727428D01*
X-7050357Y-1713143D01*
X-7050357Y-1741714D01*
X-6778929Y-1441714D02*
X-6836072Y-1441714D01*
X-6864643Y-1456000D01*
X-6878929Y-1470286D01*
X-6907500Y-1513143D01*
X-6921786Y-1570286D01*
X-6921786Y-1684571D01*
X-6907500Y-1713143D01*
X-6893214Y-1727428D01*
X-6864643Y-1741714D01*
X-6807500Y-1741714D01*
X-6778929Y-1727428D01*
X-6764643Y-1713143D01*
X-6750357Y-1684571D01*
X-6750357Y-1613143D01*
X-6764643Y-1584571D01*
X-6778929Y-1570286D01*
X-6807500Y-1556000D01*
X-6864643Y-1556000D01*
X-6893214Y-1570286D01*
X-6907500Y-1584571D01*
X-6921786Y-1613143D01*
X-6564643Y-1441714D02*
X-6536072Y-1441714D01*
X-6507500Y-1456000D01*
X-6493214Y-1470286D01*
X-6478929Y-1498857D01*
X-6464643Y-1556000D01*
X-6464643Y-1627428D01*
X-6478929Y-1684571D01*
X-6493214Y-1713143D01*
X-6507500Y-1727428D01*
X-6536072Y-1741714D01*
X-6564643Y-1741714D01*
X-6593214Y-1727428D01*
X-6607500Y-1713143D01*
X-6621786Y-1684571D01*
X-6636072Y-1627428D01*
X-6636072Y-1556000D01*
X-6621786Y-1498857D01*
X-6607500Y-1470286D01*
X-6593214Y-1456000D01*
X-6564643Y-1441714D01*
X-6336072Y-1741714D02*
X-6336072Y-1541714D01*
X-6336072Y-1570286D02*
X-6321786Y-1556000D01*
X-6293214Y-1541714D01*
X-6250357Y-1541714D01*
X-6221786Y-1556000D01*
X-6207500Y-1584571D01*
X-6207500Y-1741714D01*
X-6207500Y-1584571D02*
X-6193214Y-1556000D01*
X-6164643Y-1541714D01*
X-6121786Y-1541714D01*
X-6093214Y-1556000D01*
X-6078929Y-1584571D01*
X-6078929Y-1741714D01*
X-5936072Y-1741714D02*
X-5936072Y-1541714D01*
X-5936072Y-1570286D02*
X-5921786Y-1556000D01*
X-5893214Y-1541714D01*
X-5850357Y-1541714D01*
X-5821786Y-1556000D01*
X-5807500Y-1584571D01*
X-5807500Y-1741714D01*
X-5807500Y-1584571D02*
X-5793214Y-1556000D01*
X-5764643Y-1541714D01*
X-5721786Y-1541714D01*
X-5693214Y-1556000D01*
X-5678929Y-1584571D01*
X-5678929Y-1741714D01*
X-5093214Y-1427428D02*
X-5350357Y-1813143D01*
X-4707500Y-1441714D02*
X-4678929Y-1441714D01*
X-4650357Y-1456000D01*
X-4636072Y-1470286D01*
X-4621786Y-1498857D01*
X-4607500Y-1556000D01*
X-4607500Y-1627428D01*
X-4621786Y-1684571D01*
X-4636072Y-1713143D01*
X-4650357Y-1727428D01*
X-4678929Y-1741714D01*
X-4707500Y-1741714D01*
X-4736072Y-1727428D01*
X-4750357Y-1713143D01*
X-4764643Y-1684571D01*
X-4778929Y-1627428D01*
X-4778929Y-1556000D01*
X-4764643Y-1498857D01*
X-4750357Y-1470286D01*
X-4736072Y-1456000D01*
X-4707500Y-1441714D01*
X-4478929Y-1713143D02*
X-4464643Y-1727428D01*
X-4478929Y-1741714D01*
X-4493214Y-1727428D01*
X-4478929Y-1713143D01*
X-4478929Y-1741714D01*
X-4278929Y-1441714D02*
X-4250357Y-1441714D01*
X-4221786Y-1456000D01*
X-4207500Y-1470286D01*
X-4193214Y-1498857D01*
X-4178929Y-1556000D01*
X-4178929Y-1627428D01*
X-4193214Y-1684571D01*
X-4207500Y-1713143D01*
X-4221786Y-1727428D01*
X-4250357Y-1741714D01*
X-4278929Y-1741714D01*
X-4307500Y-1727428D01*
X-4321786Y-1713143D01*
X-4336072Y-1684571D01*
X-4350357Y-1627428D01*
X-4350357Y-1556000D01*
X-4336072Y-1498857D01*
X-4321786Y-1470286D01*
X-4307500Y-1456000D01*
X-4278929Y-1441714D01*
X-4064643Y-1470286D02*
X-4050357Y-1456000D01*
X-4021786Y-1441714D01*
X-3950357Y-1441714D01*
X-3921786Y-1456000D01*
X-3907500Y-1470286D01*
X-3893214Y-1498857D01*
X-3893214Y-1527428D01*
X-3907500Y-1570286D01*
X-4078929Y-1741714D01*
X-3893214Y-1741714D01*
X-3636072Y-1541714D02*
X-3636072Y-1741714D01*
X-3707500Y-1427428D02*
X-3778929Y-1641714D01*
X-3593214Y-1641714D01*
X-3493214Y-1441714D02*
X-3493214Y-1498857D01*
X-3378929Y-1441714D02*
X-3378929Y-1498857D01*
X-2936072Y-1856000D02*
X-2950357Y-1841714D01*
X-2978929Y-1798857D01*
X-2993214Y-1770286D01*
X-3007500Y-1727428D01*
X-3021786Y-1656000D01*
X-3021786Y-1598857D01*
X-3007500Y-1527428D01*
X-2993214Y-1484571D01*
X-2978929Y-1456000D01*
X-2950357Y-1413143D01*
X-2936072Y-1398857D01*
X-2693214Y-1441714D02*
X-2750357Y-1441714D01*
X-2778929Y-1456000D01*
X-2793214Y-1470286D01*
X-2821786Y-1513143D01*
X-2836072Y-1570286D01*
X-2836072Y-1684571D01*
X-2821786Y-1713143D01*
X-2807500Y-1727428D01*
X-2778929Y-1741714D01*
X-2721786Y-1741714D01*
X-2693214Y-1727428D01*
X-2678929Y-1713143D01*
X-2664643Y-1684571D01*
X-2664643Y-1613143D01*
X-2678929Y-1584571D01*
X-2693214Y-1570286D01*
X-2721786Y-1556000D01*
X-2778929Y-1556000D01*
X-2807500Y-1570286D01*
X-2821786Y-1584571D01*
X-2836072Y-1613143D01*
X-2307500Y-1741714D02*
X-2307500Y-1441714D01*
X-2178929Y-1741714D02*
X-2178929Y-1584571D01*
X-2193214Y-1556000D01*
X-2221786Y-1541714D01*
X-2264643Y-1541714D01*
X-2293214Y-1556000D01*
X-2307500Y-1570286D01*
X-1993214Y-1741714D02*
X-2021786Y-1727428D01*
X-2036072Y-1713143D01*
X-2050357Y-1684571D01*
X-2050357Y-1598857D01*
X-2036072Y-1570286D01*
X-2021786Y-1556000D01*
X-1993214Y-1541714D01*
X-1950357Y-1541714D01*
X-1921786Y-1556000D01*
X-1907500Y-1570286D01*
X-1893214Y-1598857D01*
X-1893214Y-1684571D01*
X-1907500Y-1713143D01*
X-1921786Y-1727428D01*
X-1950357Y-1741714D01*
X-1993214Y-1741714D01*
X-1721786Y-1741714D02*
X-1750357Y-1727428D01*
X-1764643Y-1698857D01*
X-1764643Y-1441714D01*
X-1493214Y-1727428D02*
X-1521786Y-1741714D01*
X-1578929Y-1741714D01*
X-1607500Y-1727428D01*
X-1621786Y-1698857D01*
X-1621786Y-1584571D01*
X-1607500Y-1556000D01*
X-1578929Y-1541714D01*
X-1521786Y-1541714D01*
X-1493214Y-1556000D01*
X-1478929Y-1584571D01*
X-1478929Y-1613143D01*
X-1621786Y-1641714D01*
X-1364643Y-1727428D02*
X-1336072Y-1741714D01*
X-1278929Y-1741714D01*
X-1250357Y-1727428D01*
X-1236072Y-1698857D01*
X-1236072Y-1684571D01*
X-1250357Y-1656000D01*
X-1278929Y-1641714D01*
X-1321786Y-1641714D01*
X-1350357Y-1627428D01*
X-1364643Y-1598857D01*
X-1364643Y-1584571D01*
X-1350357Y-1556000D01*
X-1321786Y-1541714D01*
X-1278929Y-1541714D01*
X-1250357Y-1556000D01*
X-1136072Y-1856000D02*
X-1121786Y-1841714D01*
X-1093214Y-1798857D01*
X-1078929Y-1770286D01*
X-1064643Y-1727428D01*
X-1050357Y-1656000D01*
X-1050357Y-1598857D01*
X-1064643Y-1527428D01*
X-1078929Y-1484571D01*
X-1093214Y-1456000D01*
X-1121786Y-1413143D01*
X-1136072Y-1398857D01*
X-7662500Y-1962000D02*
X-7662500Y-2042000D01*
X-7702500Y-2002000D02*
X-7622500Y-2002000D01*
X-7278929Y-1837714D02*
X-7250357Y-1837714D01*
X-7221786Y-1852000D01*
X-7207500Y-1866286D01*
X-7193214Y-1894857D01*
X-7178929Y-1952000D01*
X-7178929Y-2023428D01*
X-7193214Y-2080571D01*
X-7207500Y-2109143D01*
X-7221786Y-2123429D01*
X-7250357Y-2137714D01*
X-7278929Y-2137714D01*
X-7307500Y-2123429D01*
X-7321786Y-2109143D01*
X-7336072Y-2080571D01*
X-7350357Y-2023428D01*
X-7350357Y-1952000D01*
X-7336072Y-1894857D01*
X-7321786Y-1866286D01*
X-7307500Y-1852000D01*
X-7278929Y-1837714D01*
X-7050357Y-2109143D02*
X-7036072Y-2123429D01*
X-7050357Y-2137714D01*
X-7064643Y-2123429D01*
X-7050357Y-2109143D01*
X-7050357Y-2137714D01*
X-6864643Y-1966286D02*
X-6893214Y-1952000D01*
X-6907500Y-1937714D01*
X-6921786Y-1909143D01*
X-6921786Y-1894857D01*
X-6907500Y-1866286D01*
X-6893214Y-1852000D01*
X-6864643Y-1837714D01*
X-6807500Y-1837714D01*
X-6778929Y-1852000D01*
X-6764643Y-1866286D01*
X-6750357Y-1894857D01*
X-6750357Y-1909143D01*
X-6764643Y-1937714D01*
X-6778929Y-1952000D01*
X-6807500Y-1966286D01*
X-6864643Y-1966286D01*
X-6893214Y-1980571D01*
X-6907500Y-1994857D01*
X-6921786Y-2023428D01*
X-6921786Y-2080571D01*
X-6907500Y-2109143D01*
X-6893214Y-2123429D01*
X-6864643Y-2137714D01*
X-6807500Y-2137714D01*
X-6778929Y-2123429D01*
X-6764643Y-2109143D01*
X-6750357Y-2080571D01*
X-6750357Y-2023428D01*
X-6764643Y-1994857D01*
X-6778929Y-1980571D01*
X-6807500Y-1966286D01*
X-6564643Y-1837714D02*
X-6536072Y-1837714D01*
X-6507500Y-1852000D01*
X-6493214Y-1866286D01*
X-6478929Y-1894857D01*
X-6464643Y-1952000D01*
X-6464643Y-2023428D01*
X-6478929Y-2080571D01*
X-6493214Y-2109143D01*
X-6507500Y-2123429D01*
X-6536072Y-2137714D01*
X-6564643Y-2137714D01*
X-6593214Y-2123429D01*
X-6607500Y-2109143D01*
X-6621786Y-2080571D01*
X-6636072Y-2023428D01*
X-6636072Y-1952000D01*
X-6621786Y-1894857D01*
X-6607500Y-1866286D01*
X-6593214Y-1852000D01*
X-6564643Y-1837714D01*
X-6336072Y-2137714D02*
X-6336072Y-1937714D01*
X-6336072Y-1966286D02*
X-6321786Y-1952000D01*
X-6293214Y-1937714D01*
X-6250357Y-1937714D01*
X-6221786Y-1952000D01*
X-6207500Y-1980571D01*
X-6207500Y-2137714D01*
X-6207500Y-1980571D02*
X-6193214Y-1952000D01*
X-6164643Y-1937714D01*
X-6121786Y-1937714D01*
X-6093214Y-1952000D01*
X-6078929Y-1980571D01*
X-6078929Y-2137714D01*
X-5936072Y-2137714D02*
X-5936072Y-1937714D01*
X-5936072Y-1966286D02*
X-5921786Y-1952000D01*
X-5893214Y-1937714D01*
X-5850357Y-1937714D01*
X-5821786Y-1952000D01*
X-5807500Y-1980571D01*
X-5807500Y-2137714D01*
X-5807500Y-1980571D02*
X-5793214Y-1952000D01*
X-5764643Y-1937714D01*
X-5721786Y-1937714D01*
X-5693214Y-1952000D01*
X-5678929Y-1980571D01*
X-5678929Y-2137714D01*
X-5093214Y-1823428D02*
X-5350357Y-2209143D01*
X-4707500Y-1837714D02*
X-4678929Y-1837714D01*
X-4650357Y-1852000D01*
X-4636072Y-1866286D01*
X-4621786Y-1894857D01*
X-4607500Y-1952000D01*
X-4607500Y-2023428D01*
X-4621786Y-2080571D01*
X-4636072Y-2109143D01*
X-4650357Y-2123429D01*
X-4678929Y-2137714D01*
X-4707500Y-2137714D01*
X-4736072Y-2123429D01*
X-4750357Y-2109143D01*
X-4764643Y-2080571D01*
X-4778929Y-2023428D01*
X-4778929Y-1952000D01*
X-4764643Y-1894857D01*
X-4750357Y-1866286D01*
X-4736072Y-1852000D01*
X-4707500Y-1837714D01*
X-4478929Y-2109143D02*
X-4464643Y-2123429D01*
X-4478929Y-2137714D01*
X-4493214Y-2123429D01*
X-4478929Y-2109143D01*
X-4478929Y-2137714D01*
X-4278929Y-1837714D02*
X-4250357Y-1837714D01*
X-4221786Y-1852000D01*
X-4207500Y-1866286D01*
X-4193214Y-1894857D01*
X-4178929Y-1952000D01*
X-4178929Y-2023428D01*
X-4193214Y-2080571D01*
X-4207500Y-2109143D01*
X-4221786Y-2123429D01*
X-4250357Y-2137714D01*
X-4278929Y-2137714D01*
X-4307500Y-2123429D01*
X-4321786Y-2109143D01*
X-4336072Y-2080571D01*
X-4350357Y-2023428D01*
X-4350357Y-1952000D01*
X-4336072Y-1894857D01*
X-4321786Y-1866286D01*
X-4307500Y-1852000D01*
X-4278929Y-1837714D01*
X-4078929Y-1837714D02*
X-3893214Y-1837714D01*
X-3993214Y-1952000D01*
X-3950357Y-1952000D01*
X-3921786Y-1966286D01*
X-3907500Y-1980571D01*
X-3893214Y-2009143D01*
X-3893214Y-2080571D01*
X-3907500Y-2109143D01*
X-3921786Y-2123429D01*
X-3950357Y-2137714D01*
X-4036072Y-2137714D01*
X-4064643Y-2123429D01*
X-4078929Y-2109143D01*
X-3607500Y-2137714D02*
X-3778929Y-2137714D01*
X-3693214Y-2137714D02*
X-3693214Y-1837714D01*
X-3721786Y-1880571D01*
X-3750357Y-1909143D01*
X-3778929Y-1923428D01*
X-3493214Y-1837714D02*
X-3493214Y-1894857D01*
X-3378929Y-1837714D02*
X-3378929Y-1894857D01*
X-2936072Y-2252000D02*
X-2950357Y-2237714D01*
X-2978929Y-2194857D01*
X-2993214Y-2166286D01*
X-3007500Y-2123429D01*
X-3021786Y-2052000D01*
X-3021786Y-1994857D01*
X-3007500Y-1923428D01*
X-2993214Y-1880571D01*
X-2978929Y-1852000D01*
X-2950357Y-1809143D01*
X-2936072Y-1794857D01*
X-2850357Y-1837714D02*
X-2664643Y-1837714D01*
X-2764643Y-1952000D01*
X-2721786Y-1952000D01*
X-2693214Y-1966286D01*
X-2678929Y-1980571D01*
X-2664643Y-2009143D01*
X-2664643Y-2080571D01*
X-2678929Y-2109143D01*
X-2693214Y-2123429D01*
X-2721786Y-2137714D01*
X-2807500Y-2137714D01*
X-2836072Y-2123429D01*
X-2850357Y-2109143D01*
X-2478929Y-1837714D02*
X-2450357Y-1837714D01*
X-2421786Y-1852000D01*
X-2407500Y-1866286D01*
X-2393214Y-1894857D01*
X-2378929Y-1952000D01*
X-2378929Y-2023428D01*
X-2393214Y-2080571D01*
X-2407500Y-2109143D01*
X-2421786Y-2123429D01*
X-2450357Y-2137714D01*
X-2478929Y-2137714D01*
X-2507500Y-2123429D01*
X-2521786Y-2109143D01*
X-2536072Y-2080571D01*
X-2550357Y-2023428D01*
X-2550357Y-1952000D01*
X-2536072Y-1894857D01*
X-2521786Y-1866286D01*
X-2507500Y-1852000D01*
X-2478929Y-1837714D01*
X-2021786Y-2137714D02*
X-2021786Y-1837714D01*
X-1893214Y-2137714D02*
X-1893214Y-1980571D01*
X-1907500Y-1952000D01*
X-1936072Y-1937714D01*
X-1978929Y-1937714D01*
X-2007500Y-1952000D01*
X-2021786Y-1966286D01*
X-1707500Y-2137714D02*
X-1736072Y-2123429D01*
X-1750357Y-2109143D01*
X-1764643Y-2080571D01*
X-1764643Y-1994857D01*
X-1750357Y-1966286D01*
X-1736072Y-1952000D01*
X-1707500Y-1937714D01*
X-1664643Y-1937714D01*
X-1636072Y-1952000D01*
X-1621786Y-1966286D01*
X-1607500Y-1994857D01*
X-1607500Y-2080571D01*
X-1621786Y-2109143D01*
X-1636072Y-2123429D01*
X-1664643Y-2137714D01*
X-1707500Y-2137714D01*
X-1436072Y-2137714D02*
X-1464643Y-2123429D01*
X-1478929Y-2094857D01*
X-1478929Y-1837714D01*
X-1207500Y-2123429D02*
X-1236072Y-2137714D01*
X-1293214Y-2137714D01*
X-1321786Y-2123429D01*
X-1336072Y-2094857D01*
X-1336072Y-1980571D01*
X-1321786Y-1952000D01*
X-1293214Y-1937714D01*
X-1236072Y-1937714D01*
X-1207500Y-1952000D01*
X-1193214Y-1980571D01*
X-1193214Y-2009143D01*
X-1336072Y-2037714D01*
X-1078929Y-2123429D02*
X-1050357Y-2137714D01*
X-993214Y-2137714D01*
X-964643Y-2123429D01*
X-950357Y-2094857D01*
X-950357Y-2080571D01*
X-964643Y-2052000D01*
X-993214Y-2037714D01*
X-1036072Y-2037714D01*
X-1064643Y-2023428D01*
X-1078929Y-1994857D01*
X-1078929Y-1980571D01*
X-1064643Y-1952000D01*
X-1036072Y-1937714D01*
X-993214Y-1937714D01*
X-964643Y-1952000D01*
X-850357Y-2252000D02*
X-836072Y-2237714D01*
X-807500Y-2194857D01*
X-793214Y-2166286D01*
X-778929Y-2123429D01*
X-764643Y-2052000D01*
X-764643Y-1994857D01*
X-778929Y-1923428D01*
X-793214Y-1880571D01*
X-807500Y-1852000D01*
X-836072Y-1809143D01*
X-850357Y-1794857D01*
X-7637144Y-2433356D02*
X-7637144Y-2362644D01*
X-7707856Y-2362644D01*
X-7707856Y-2433356D01*
X-7637144Y-2433356D01*
X-7178929Y-2533714D02*
X-7350357Y-2533714D01*
X-7264643Y-2533714D02*
X-7264643Y-2233714D01*
X-7293214Y-2276571D01*
X-7321786Y-2305143D01*
X-7350357Y-2319429D01*
X-7050357Y-2505143D02*
X-7036072Y-2519429D01*
X-7050357Y-2533714D01*
X-7064643Y-2519429D01*
X-7050357Y-2505143D01*
X-7050357Y-2533714D01*
X-6850357Y-2233714D02*
X-6821786Y-2233714D01*
X-6793214Y-2248000D01*
X-6778929Y-2262286D01*
X-6764643Y-2290857D01*
X-6750357Y-2348000D01*
X-6750357Y-2419429D01*
X-6764643Y-2476571D01*
X-6778929Y-2505143D01*
X-6793214Y-2519429D01*
X-6821786Y-2533714D01*
X-6850357Y-2533714D01*
X-6878929Y-2519429D01*
X-6893214Y-2505143D01*
X-6907500Y-2476571D01*
X-6921786Y-2419429D01*
X-6921786Y-2348000D01*
X-6907500Y-2290857D01*
X-6893214Y-2262286D01*
X-6878929Y-2248000D01*
X-6850357Y-2233714D01*
X-6564643Y-2233714D02*
X-6536072Y-2233714D01*
X-6507500Y-2248000D01*
X-6493214Y-2262286D01*
X-6478929Y-2290857D01*
X-6464643Y-2348000D01*
X-6464643Y-2419429D01*
X-6478929Y-2476571D01*
X-6493214Y-2505143D01*
X-6507500Y-2519429D01*
X-6536072Y-2533714D01*
X-6564643Y-2533714D01*
X-6593214Y-2519429D01*
X-6607500Y-2505143D01*
X-6621786Y-2476571D01*
X-6636072Y-2419429D01*
X-6636072Y-2348000D01*
X-6621786Y-2290857D01*
X-6607500Y-2262286D01*
X-6593214Y-2248000D01*
X-6564643Y-2233714D01*
X-6336072Y-2533714D02*
X-6336072Y-2333714D01*
X-6336072Y-2362286D02*
X-6321786Y-2348000D01*
X-6293214Y-2333714D01*
X-6250357Y-2333714D01*
X-6221786Y-2348000D01*
X-6207500Y-2376571D01*
X-6207500Y-2533714D01*
X-6207500Y-2376571D02*
X-6193214Y-2348000D01*
X-6164643Y-2333714D01*
X-6121786Y-2333714D01*
X-6093214Y-2348000D01*
X-6078929Y-2376571D01*
X-6078929Y-2533714D01*
X-5936072Y-2533714D02*
X-5936072Y-2333714D01*
X-5936072Y-2362286D02*
X-5921786Y-2348000D01*
X-5893214Y-2333714D01*
X-5850357Y-2333714D01*
X-5821786Y-2348000D01*
X-5807500Y-2376571D01*
X-5807500Y-2533714D01*
X-5807500Y-2376571D02*
X-5793214Y-2348000D01*
X-5764643Y-2333714D01*
X-5721786Y-2333714D01*
X-5693214Y-2348000D01*
X-5678929Y-2376571D01*
X-5678929Y-2533714D01*
X-5093214Y-2219429D02*
X-5350357Y-2605143D01*
X-4707500Y-2233714D02*
X-4678929Y-2233714D01*
X-4650357Y-2248000D01*
X-4636072Y-2262286D01*
X-4621786Y-2290857D01*
X-4607500Y-2348000D01*
X-4607500Y-2419429D01*
X-4621786Y-2476571D01*
X-4636072Y-2505143D01*
X-4650357Y-2519429D01*
X-4678929Y-2533714D01*
X-4707500Y-2533714D01*
X-4736072Y-2519429D01*
X-4750357Y-2505143D01*
X-4764643Y-2476571D01*
X-4778929Y-2419429D01*
X-4778929Y-2348000D01*
X-4764643Y-2290857D01*
X-4750357Y-2262286D01*
X-4736072Y-2248000D01*
X-4707500Y-2233714D01*
X-4478929Y-2505143D02*
X-4464643Y-2519429D01*
X-4478929Y-2533714D01*
X-4493214Y-2519429D01*
X-4478929Y-2505143D01*
X-4478929Y-2533714D01*
X-4278929Y-2233714D02*
X-4250357Y-2233714D01*
X-4221786Y-2248000D01*
X-4207500Y-2262286D01*
X-4193214Y-2290857D01*
X-4178929Y-2348000D01*
X-4178929Y-2419429D01*
X-4193214Y-2476571D01*
X-4207500Y-2505143D01*
X-4221786Y-2519429D01*
X-4250357Y-2533714D01*
X-4278929Y-2533714D01*
X-4307500Y-2519429D01*
X-4321786Y-2505143D01*
X-4336072Y-2476571D01*
X-4350357Y-2419429D01*
X-4350357Y-2348000D01*
X-4336072Y-2290857D01*
X-4321786Y-2262286D01*
X-4307500Y-2248000D01*
X-4278929Y-2233714D01*
X-4078929Y-2233714D02*
X-3893214Y-2233714D01*
X-3993214Y-2348000D01*
X-3950357Y-2348000D01*
X-3921786Y-2362286D01*
X-3907500Y-2376571D01*
X-3893214Y-2405143D01*
X-3893214Y-2476571D01*
X-3907500Y-2505143D01*
X-3921786Y-2519429D01*
X-3950357Y-2533714D01*
X-4036072Y-2533714D01*
X-4064643Y-2519429D01*
X-4078929Y-2505143D01*
X-3750357Y-2533714D02*
X-3693214Y-2533714D01*
X-3664643Y-2519429D01*
X-3650357Y-2505143D01*
X-3621786Y-2462286D01*
X-3607500Y-2405143D01*
X-3607500Y-2290857D01*
X-3621786Y-2262286D01*
X-3636072Y-2248000D01*
X-3664643Y-2233714D01*
X-3721786Y-2233714D01*
X-3750357Y-2248000D01*
X-3764643Y-2262286D01*
X-3778929Y-2290857D01*
X-3778929Y-2362286D01*
X-3764643Y-2390857D01*
X-3750357Y-2405143D01*
X-3721786Y-2419429D01*
X-3664643Y-2419429D01*
X-3636072Y-2405143D01*
X-3621786Y-2390857D01*
X-3607500Y-2362286D01*
X-3493214Y-2233714D02*
X-3493214Y-2290857D01*
X-3378929Y-2233714D02*
X-3378929Y-2290857D01*
X-2936072Y-2648000D02*
X-2950357Y-2633714D01*
X-2978929Y-2590857D01*
X-2993214Y-2562286D01*
X-3007500Y-2519429D01*
X-3021786Y-2448000D01*
X-3021786Y-2390857D01*
X-3007500Y-2319429D01*
X-2993214Y-2276571D01*
X-2978929Y-2248000D01*
X-2950357Y-2205143D01*
X-2936072Y-2190857D01*
X-2836072Y-2262286D02*
X-2821786Y-2248000D01*
X-2793214Y-2233714D01*
X-2721786Y-2233714D01*
X-2693214Y-2248000D01*
X-2678929Y-2262286D01*
X-2664643Y-2290857D01*
X-2664643Y-2319429D01*
X-2678929Y-2362286D01*
X-2850357Y-2533714D01*
X-2664643Y-2533714D01*
X-2378929Y-2533714D02*
X-2550357Y-2533714D01*
X-2464643Y-2533714D02*
X-2464643Y-2233714D01*
X-2493214Y-2276571D01*
X-2521786Y-2305143D01*
X-2550357Y-2319429D01*
X-2021786Y-2533714D02*
X-2021786Y-2233714D01*
X-1893214Y-2533714D02*
X-1893214Y-2376571D01*
X-1907500Y-2348000D01*
X-1936072Y-2333714D01*
X-1978929Y-2333714D01*
X-2007500Y-2348000D01*
X-2021786Y-2362286D01*
X-1707500Y-2533714D02*
X-1736072Y-2519429D01*
X-1750357Y-2505143D01*
X-1764643Y-2476571D01*
X-1764643Y-2390857D01*
X-1750357Y-2362286D01*
X-1736072Y-2348000D01*
X-1707500Y-2333714D01*
X-1664643Y-2333714D01*
X-1636072Y-2348000D01*
X-1621786Y-2362286D01*
X-1607500Y-2390857D01*
X-1607500Y-2476571D01*
X-1621786Y-2505143D01*
X-1636072Y-2519429D01*
X-1664643Y-2533714D01*
X-1707500Y-2533714D01*
X-1436072Y-2533714D02*
X-1464643Y-2519429D01*
X-1478929Y-2490857D01*
X-1478929Y-2233714D01*
X-1207500Y-2519429D02*
X-1236072Y-2533714D01*
X-1293214Y-2533714D01*
X-1321786Y-2519429D01*
X-1336072Y-2490857D01*
X-1336072Y-2376571D01*
X-1321786Y-2348000D01*
X-1293214Y-2333714D01*
X-1236072Y-2333714D01*
X-1207500Y-2348000D01*
X-1193214Y-2376571D01*
X-1193214Y-2405143D01*
X-1336072Y-2433714D01*
X-1078929Y-2519429D02*
X-1050357Y-2533714D01*
X-993214Y-2533714D01*
X-964643Y-2519429D01*
X-950357Y-2490857D01*
X-950357Y-2476571D01*
X-964643Y-2448000D01*
X-993214Y-2433714D01*
X-1036072Y-2433714D01*
X-1064643Y-2419429D01*
X-1078929Y-2390857D01*
X-1078929Y-2376571D01*
X-1064643Y-2348000D01*
X-1036072Y-2333714D01*
X-993214Y-2333714D01*
X-964643Y-2348000D01*
X-850357Y-2648000D02*
X-836072Y-2633714D01*
X-807500Y-2590857D01*
X-793214Y-2562286D01*
X-778929Y-2519429D01*
X-764643Y-2448000D01*
X-764643Y-2390857D01*
X-778929Y-2319429D01*
X-793214Y-2276571D01*
X-807500Y-2248000D01*
X-836072Y-2205143D01*
X-850357Y-2190857D01*
X-7687500Y-2859000D02*
X-7622500Y-2794000D01*
X-7687500Y-2729000D01*
X-7752500Y-2794000D01*
X-7687500Y-2859000D01*
X-7178929Y-2929714D02*
X-7350357Y-2929714D01*
X-7264643Y-2929714D02*
X-7264643Y-2629714D01*
X-7293214Y-2672571D01*
X-7321786Y-2701143D01*
X-7350357Y-2715429D01*
X-7050357Y-2901143D02*
X-7036072Y-2915428D01*
X-7050357Y-2929714D01*
X-7064643Y-2915428D01*
X-7050357Y-2901143D01*
X-7050357Y-2929714D01*
X-6936072Y-2629714D02*
X-6750357Y-2629714D01*
X-6850357Y-2744000D01*
X-6807500Y-2744000D01*
X-6778929Y-2758286D01*
X-6764643Y-2772571D01*
X-6750357Y-2801143D01*
X-6750357Y-2872571D01*
X-6764643Y-2901143D01*
X-6778929Y-2915428D01*
X-6807500Y-2929714D01*
X-6893214Y-2929714D01*
X-6921786Y-2915428D01*
X-6936072Y-2901143D01*
X-6564643Y-2629714D02*
X-6536072Y-2629714D01*
X-6507500Y-2644000D01*
X-6493214Y-2658286D01*
X-6478929Y-2686857D01*
X-6464643Y-2744000D01*
X-6464643Y-2815428D01*
X-6478929Y-2872571D01*
X-6493214Y-2901143D01*
X-6507500Y-2915428D01*
X-6536072Y-2929714D01*
X-6564643Y-2929714D01*
X-6593214Y-2915428D01*
X-6607500Y-2901143D01*
X-6621786Y-2872571D01*
X-6636072Y-2815428D01*
X-6636072Y-2744000D01*
X-6621786Y-2686857D01*
X-6607500Y-2658286D01*
X-6593214Y-2644000D01*
X-6564643Y-2629714D01*
X-6336072Y-2929714D02*
X-6336072Y-2729714D01*
X-6336072Y-2758286D02*
X-6321786Y-2744000D01*
X-6293214Y-2729714D01*
X-6250357Y-2729714D01*
X-6221786Y-2744000D01*
X-6207500Y-2772571D01*
X-6207500Y-2929714D01*
X-6207500Y-2772571D02*
X-6193214Y-2744000D01*
X-6164643Y-2729714D01*
X-6121786Y-2729714D01*
X-6093214Y-2744000D01*
X-6078929Y-2772571D01*
X-6078929Y-2929714D01*
X-5936072Y-2929714D02*
X-5936072Y-2729714D01*
X-5936072Y-2758286D02*
X-5921786Y-2744000D01*
X-5893214Y-2729714D01*
X-5850357Y-2729714D01*
X-5821786Y-2744000D01*
X-5807500Y-2772571D01*
X-5807500Y-2929714D01*
X-5807500Y-2772571D02*
X-5793214Y-2744000D01*
X-5764643Y-2729714D01*
X-5721786Y-2729714D01*
X-5693214Y-2744000D01*
X-5678929Y-2772571D01*
X-5678929Y-2929714D01*
X-5093214Y-2615429D02*
X-5350357Y-3001143D01*
X-4707500Y-2629714D02*
X-4678929Y-2629714D01*
X-4650357Y-2644000D01*
X-4636072Y-2658286D01*
X-4621786Y-2686857D01*
X-4607500Y-2744000D01*
X-4607500Y-2815428D01*
X-4621786Y-2872571D01*
X-4636072Y-2901143D01*
X-4650357Y-2915428D01*
X-4678929Y-2929714D01*
X-4707500Y-2929714D01*
X-4736072Y-2915428D01*
X-4750357Y-2901143D01*
X-4764643Y-2872571D01*
X-4778929Y-2815428D01*
X-4778929Y-2744000D01*
X-4764643Y-2686857D01*
X-4750357Y-2658286D01*
X-4736072Y-2644000D01*
X-4707500Y-2629714D01*
X-4478929Y-2901143D02*
X-4464643Y-2915428D01*
X-4478929Y-2929714D01*
X-4493214Y-2915428D01*
X-4478929Y-2901143D01*
X-4478929Y-2929714D01*
X-4278929Y-2629714D02*
X-4250357Y-2629714D01*
X-4221786Y-2644000D01*
X-4207500Y-2658286D01*
X-4193214Y-2686857D01*
X-4178929Y-2744000D01*
X-4178929Y-2815428D01*
X-4193214Y-2872571D01*
X-4207500Y-2901143D01*
X-4221786Y-2915428D01*
X-4250357Y-2929714D01*
X-4278929Y-2929714D01*
X-4307500Y-2915428D01*
X-4321786Y-2901143D01*
X-4336072Y-2872571D01*
X-4350357Y-2815428D01*
X-4350357Y-2744000D01*
X-4336072Y-2686857D01*
X-4321786Y-2658286D01*
X-4307500Y-2644000D01*
X-4278929Y-2629714D01*
X-3907500Y-2629714D02*
X-4050357Y-2629714D01*
X-4064643Y-2772571D01*
X-4050357Y-2758286D01*
X-4021786Y-2744000D01*
X-3950357Y-2744000D01*
X-3921786Y-2758286D01*
X-3907500Y-2772571D01*
X-3893214Y-2801143D01*
X-3893214Y-2872571D01*
X-3907500Y-2901143D01*
X-3921786Y-2915428D01*
X-3950357Y-2929714D01*
X-4021786Y-2929714D01*
X-4050357Y-2915428D01*
X-4064643Y-2901143D01*
X-3607500Y-2929714D02*
X-3778929Y-2929714D01*
X-3693214Y-2929714D02*
X-3693214Y-2629714D01*
X-3721786Y-2672571D01*
X-3750357Y-2701143D01*
X-3778929Y-2715429D01*
X-3493214Y-2629714D02*
X-3493214Y-2686857D01*
X-3378929Y-2629714D02*
X-3378929Y-2686857D01*
X-2936072Y-3044000D02*
X-2950357Y-3029714D01*
X-2978929Y-2986857D01*
X-2993214Y-2958286D01*
X-3007500Y-2915428D01*
X-3021786Y-2844000D01*
X-3021786Y-2786857D01*
X-3007500Y-2715429D01*
X-2993214Y-2672571D01*
X-2978929Y-2644000D01*
X-2950357Y-2601143D01*
X-2936072Y-2586857D01*
X-2693214Y-2629714D02*
X-2750357Y-2629714D01*
X-2778929Y-2644000D01*
X-2793214Y-2658286D01*
X-2821786Y-2701143D01*
X-2836072Y-2758286D01*
X-2836072Y-2872571D01*
X-2821786Y-2901143D01*
X-2807500Y-2915428D01*
X-2778929Y-2929714D01*
X-2721786Y-2929714D01*
X-2693214Y-2915428D01*
X-2678929Y-2901143D01*
X-2664643Y-2872571D01*
X-2664643Y-2801143D01*
X-2678929Y-2772571D01*
X-2693214Y-2758286D01*
X-2721786Y-2744000D01*
X-2778929Y-2744000D01*
X-2807500Y-2758286D01*
X-2821786Y-2772571D01*
X-2836072Y-2801143D01*
X-2307500Y-2929714D02*
X-2307500Y-2629714D01*
X-2178929Y-2929714D02*
X-2178929Y-2772571D01*
X-2193214Y-2744000D01*
X-2221786Y-2729714D01*
X-2264643Y-2729714D01*
X-2293214Y-2744000D01*
X-2307500Y-2758286D01*
X-1993214Y-2929714D02*
X-2021786Y-2915428D01*
X-2036072Y-2901143D01*
X-2050357Y-2872571D01*
X-2050357Y-2786857D01*
X-2036072Y-2758286D01*
X-2021786Y-2744000D01*
X-1993214Y-2729714D01*
X-1950357Y-2729714D01*
X-1921786Y-2744000D01*
X-1907500Y-2758286D01*
X-1893214Y-2786857D01*
X-1893214Y-2872571D01*
X-1907500Y-2901143D01*
X-1921786Y-2915428D01*
X-1950357Y-2929714D01*
X-1993214Y-2929714D01*
X-1721786Y-2929714D02*
X-1750357Y-2915428D01*
X-1764643Y-2886857D01*
X-1764643Y-2629714D01*
X-1493214Y-2915428D02*
X-1521786Y-2929714D01*
X-1578929Y-2929714D01*
X-1607500Y-2915428D01*
X-1621786Y-2886857D01*
X-1621786Y-2772571D01*
X-1607500Y-2744000D01*
X-1578929Y-2729714D01*
X-1521786Y-2729714D01*
X-1493214Y-2744000D01*
X-1478929Y-2772571D01*
X-1478929Y-2801143D01*
X-1621786Y-2829714D01*
X-1364643Y-2915428D02*
X-1336072Y-2929714D01*
X-1278929Y-2929714D01*
X-1250357Y-2915428D01*
X-1236072Y-2886857D01*
X-1236072Y-2872571D01*
X-1250357Y-2844000D01*
X-1278929Y-2829714D01*
X-1321786Y-2829714D01*
X-1350357Y-2815428D01*
X-1364643Y-2786857D01*
X-1364643Y-2772571D01*
X-1350357Y-2744000D01*
X-1321786Y-2729714D01*
X-1278929Y-2729714D01*
X-1250357Y-2744000D01*
X-1136072Y-3044000D02*
X-1121786Y-3029714D01*
X-1093214Y-2986857D01*
X-1078929Y-2958286D01*
X-1064643Y-2915428D01*
X-1050357Y-2844000D01*
X-1050357Y-2786857D01*
X-1064643Y-2715429D01*
X-1078929Y-2672571D01*
X-1093214Y-2644000D01*
X-1121786Y-2601143D01*
X-1136072Y-2586857D01*
M02*
