%FSLAX45Y45*%
G04 Gerber Fmt 4.5, Leading zero omitted, Abs format (unit mm)*
G04 Created by KiCad (PCBNEW 5.1.5-52549c5~86~ubuntu18.04.1) date 2020-04-25 00:11:36*
%MOMM*%
%LPD*%
G04 APERTURE LIST*
%TA.AperFunction,Profile*%
%ADD10C,0.050000*%
%TD*%
%ADD11C,0.200000*%
%ADD12C,0.300000*%
G04 APERTURE END LIST*
D10*
X19685000Y-10541000D02*
X10668000Y-10541000D01*
X19685000Y-2794000D02*
X19685000Y-10541000D01*
X10668000Y-2794000D02*
X19685000Y-2794000D01*
X10668000Y-10541000D02*
X10668000Y-2794000D01*
D11*
X14257500Y-7517000D02*
X14317500Y-7577000D01*
X14317500Y-7517000D02*
X14257500Y-7577000D01*
X14257500Y-7717000D02*
X14317500Y-7777000D01*
X14317500Y-7717000D02*
X14257500Y-7777000D01*
X16353000Y-4161000D02*
X16413000Y-4221000D01*
X16413000Y-4161000D02*
X16353000Y-4221000D01*
X16553000Y-4161000D02*
X16613000Y-4221000D01*
X16613000Y-4161000D02*
X16553000Y-4221000D01*
X14581500Y-5588000D02*
G75*
G03X14581500Y-5588000I-40000J0D01*
G01*
X16550000Y-6985000D02*
G75*
G03X16550000Y-6985000I-40000J0D01*
G01*
X17312000Y-3683000D02*
G75*
G03X17312000Y-3683000I-40000J0D01*
G01*
X17312000Y-4191000D02*
G75*
G03X17312000Y-4191000I-40000J0D01*
G01*
X18137500Y-8255000D02*
G75*
G03X18137500Y-8255000I-40000J0D01*
G01*
X19344000Y-8255000D02*
G75*
G03X19344000Y-8255000I-40000J0D01*
G01*
X15407000Y-8255000D02*
G75*
G03X15407000Y-8255000I-40000J0D01*
G01*
X16423000Y-8255000D02*
G75*
G03X16423000Y-8255000I-40000J0D01*
G01*
X15026000Y-4064000D02*
G75*
G03X15026000Y-4064000I-40000J0D01*
G01*
X16042000Y-4064000D02*
G75*
G03X16042000Y-4064000I-40000J0D01*
G01*
X14010000Y-5588000D02*
G75*
G03X14010000Y-5588000I-40000J0D01*
G01*
X14010000Y-6604000D02*
G75*
G03X14010000Y-6604000I-40000J0D01*
G01*
X16169000Y-9271000D02*
G75*
G03X16169000Y-9271000I-40000J0D01*
G01*
X17185000Y-9271000D02*
G75*
G03X17185000Y-9271000I-40000J0D01*
G01*
X12363000Y-4699000D02*
G75*
G03X12363000Y-4699000I-40000J0D01*
G01*
X12613000Y-4699000D02*
G75*
G03X12613000Y-4699000I-40000J0D01*
G01*
X15089500Y-7239000D02*
G75*
G03X15089500Y-7239000I-40000J0D01*
G01*
X15089500Y-8255000D02*
G75*
G03X15089500Y-8255000I-40000J0D01*
G01*
X15026000Y-4445000D02*
G75*
G03X15026000Y-4445000I-40000J0D01*
G01*
X16042000Y-4445000D02*
G75*
G03X16042000Y-4445000I-40000J0D01*
G01*
X16740500Y-8255000D02*
G75*
G03X16740500Y-8255000I-40000J0D01*
G01*
X17240500Y-8255000D02*
G75*
G03X17240500Y-8255000I-40000J0D01*
G01*
X15407000Y-8763000D02*
G75*
G03X15407000Y-8763000I-40000J0D01*
G01*
X16423000Y-8763000D02*
G75*
G03X16423000Y-8763000I-40000J0D01*
G01*
X15494000Y-7697000D02*
X15494000Y-7797000D01*
X15444000Y-7747000D02*
X15544000Y-7747000D01*
X15748000Y-7697000D02*
X15748000Y-7797000D01*
X15698000Y-7747000D02*
X15798000Y-7747000D01*
X16002000Y-7697000D02*
X16002000Y-7797000D01*
X15952000Y-7747000D02*
X16052000Y-7747000D01*
X16256000Y-7697000D02*
X16256000Y-7797000D01*
X16206000Y-7747000D02*
X16306000Y-7747000D01*
X11545000Y-5265000D02*
X11545000Y-5365000D01*
X11495000Y-5315000D02*
X11595000Y-5315000D01*
X12065000Y-8205000D02*
X12065000Y-8305000D01*
X12015000Y-8255000D02*
X12115000Y-8255000D01*
X12565000Y-8205000D02*
X12565000Y-8305000D01*
X12515000Y-8255000D02*
X12615000Y-8255000D01*
X13085000Y-5265000D02*
X13085000Y-5365000D01*
X13035000Y-5315000D02*
X13135000Y-5315000D01*
X15240000Y-3379000D02*
X15240000Y-3479000D01*
X15190000Y-3429000D02*
X15290000Y-3429000D01*
X15494000Y-3379000D02*
X15494000Y-3479000D01*
X15444000Y-3429000D02*
X15544000Y-3429000D01*
X15748000Y-3379000D02*
X15748000Y-3479000D01*
X15698000Y-3429000D02*
X15798000Y-3429000D01*
X16002000Y-3379000D02*
X16002000Y-3479000D01*
X15952000Y-3429000D02*
X16052000Y-3429000D01*
X16256000Y-3379000D02*
X16256000Y-3479000D01*
X16206000Y-3429000D02*
X16306000Y-3429000D01*
X15367000Y-9475000D02*
X15367000Y-9575000D01*
X15317000Y-9525000D02*
X15417000Y-9525000D01*
X15367000Y-9729000D02*
X15367000Y-9829000D01*
X15317000Y-9779000D02*
X15417000Y-9779000D01*
X15621000Y-9475000D02*
X15621000Y-9575000D01*
X15571000Y-9525000D02*
X15671000Y-9525000D01*
X15621000Y-9729000D02*
X15621000Y-9829000D01*
X15571000Y-9779000D02*
X15671000Y-9779000D01*
X12110962Y-9634462D02*
X12110962Y-9542538D01*
X12019038Y-9542538D01*
X12019038Y-9634462D01*
X12110962Y-9634462D01*
X12610962Y-9634462D02*
X12610962Y-9542538D01*
X12519038Y-9542538D01*
X12519038Y-9634462D01*
X12610962Y-9634462D01*
X13277962Y-9634462D02*
X13277962Y-9542538D01*
X13186038Y-9542538D01*
X13186038Y-9634462D01*
X13277962Y-9634462D01*
X13777962Y-9634462D02*
X13777962Y-9542538D01*
X13686038Y-9542538D01*
X13686038Y-9634462D01*
X13777962Y-9634462D01*
X14277962Y-9634462D02*
X14277962Y-9542538D01*
X14186038Y-9542538D01*
X14186038Y-9634462D01*
X14277962Y-9634462D01*
X14777962Y-9634462D02*
X14777962Y-9542538D01*
X14686038Y-9542538D01*
X14686038Y-9634462D01*
X14777962Y-9634462D01*
D12*
X10951928Y-11009214D02*
X10951928Y-10709214D01*
X11023357Y-10709214D01*
X11066214Y-10723500D01*
X11094786Y-10752072D01*
X11109071Y-10780643D01*
X11123357Y-10837786D01*
X11123357Y-10880643D01*
X11109071Y-10937786D01*
X11094786Y-10966357D01*
X11066214Y-10994929D01*
X11023357Y-11009214D01*
X10951928Y-11009214D01*
X11251928Y-11009214D02*
X11251928Y-10809214D01*
X11251928Y-10866357D02*
X11266214Y-10837786D01*
X11280500Y-10823500D01*
X11309071Y-10809214D01*
X11337643Y-10809214D01*
X11437643Y-11009214D02*
X11437643Y-10809214D01*
X11437643Y-10709214D02*
X11423357Y-10723500D01*
X11437643Y-10737786D01*
X11451928Y-10723500D01*
X11437643Y-10709214D01*
X11437643Y-10737786D01*
X11623357Y-11009214D02*
X11594786Y-10994929D01*
X11580500Y-10966357D01*
X11580500Y-10709214D01*
X11780500Y-11009214D02*
X11751928Y-10994929D01*
X11737643Y-10966357D01*
X11737643Y-10709214D01*
X12123357Y-11009214D02*
X12123357Y-10709214D01*
X12223357Y-10923500D01*
X12323357Y-10709214D01*
X12323357Y-11009214D01*
X12594786Y-11009214D02*
X12594786Y-10852072D01*
X12580500Y-10823500D01*
X12551928Y-10809214D01*
X12494786Y-10809214D01*
X12466214Y-10823500D01*
X12594786Y-10994929D02*
X12566214Y-11009214D01*
X12494786Y-11009214D01*
X12466214Y-10994929D01*
X12451928Y-10966357D01*
X12451928Y-10937786D01*
X12466214Y-10909214D01*
X12494786Y-10894929D01*
X12566214Y-10894929D01*
X12594786Y-10880643D01*
X12737643Y-10809214D02*
X12737643Y-11109214D01*
X12737643Y-10823500D02*
X12766214Y-10809214D01*
X12823357Y-10809214D01*
X12851928Y-10823500D01*
X12866214Y-10837786D01*
X12880500Y-10866357D01*
X12880500Y-10952072D01*
X12866214Y-10980643D01*
X12851928Y-10994929D01*
X12823357Y-11009214D01*
X12766214Y-11009214D01*
X12737643Y-10994929D01*
X13009071Y-10980643D02*
X13023357Y-10994929D01*
X13009071Y-11009214D01*
X12994786Y-10994929D01*
X13009071Y-10980643D01*
X13009071Y-11009214D01*
X13009071Y-10823500D02*
X13023357Y-10837786D01*
X13009071Y-10852072D01*
X12994786Y-10837786D01*
X13009071Y-10823500D01*
X13009071Y-10852072D01*
X10605500Y-11473500D02*
X10665500Y-11533500D01*
X10665500Y-11473500D02*
X10605500Y-11533500D01*
X11009071Y-11339214D02*
X11037643Y-11339214D01*
X11066214Y-11353500D01*
X11080500Y-11367786D01*
X11094786Y-11396357D01*
X11109071Y-11453500D01*
X11109071Y-11524929D01*
X11094786Y-11582071D01*
X11080500Y-11610643D01*
X11066214Y-11624929D01*
X11037643Y-11639214D01*
X11009071Y-11639214D01*
X10980500Y-11624929D01*
X10966214Y-11610643D01*
X10951928Y-11582071D01*
X10937643Y-11524929D01*
X10937643Y-11453500D01*
X10951928Y-11396357D01*
X10966214Y-11367786D01*
X10980500Y-11353500D01*
X11009071Y-11339214D01*
X11237643Y-11610643D02*
X11251928Y-11624929D01*
X11237643Y-11639214D01*
X11223357Y-11624929D01*
X11237643Y-11610643D01*
X11237643Y-11639214D01*
X11509071Y-11339214D02*
X11451928Y-11339214D01*
X11423357Y-11353500D01*
X11409071Y-11367786D01*
X11380500Y-11410643D01*
X11366214Y-11467786D01*
X11366214Y-11582071D01*
X11380500Y-11610643D01*
X11394786Y-11624929D01*
X11423357Y-11639214D01*
X11480500Y-11639214D01*
X11509071Y-11624929D01*
X11523357Y-11610643D01*
X11537643Y-11582071D01*
X11537643Y-11510643D01*
X11523357Y-11482071D01*
X11509071Y-11467786D01*
X11480500Y-11453500D01*
X11423357Y-11453500D01*
X11394786Y-11467786D01*
X11380500Y-11482071D01*
X11366214Y-11510643D01*
X11723357Y-11339214D02*
X11751928Y-11339214D01*
X11780500Y-11353500D01*
X11794786Y-11367786D01*
X11809071Y-11396357D01*
X11823357Y-11453500D01*
X11823357Y-11524929D01*
X11809071Y-11582071D01*
X11794786Y-11610643D01*
X11780500Y-11624929D01*
X11751928Y-11639214D01*
X11723357Y-11639214D01*
X11694786Y-11624929D01*
X11680500Y-11610643D01*
X11666214Y-11582071D01*
X11651928Y-11524929D01*
X11651928Y-11453500D01*
X11666214Y-11396357D01*
X11680500Y-11367786D01*
X11694786Y-11353500D01*
X11723357Y-11339214D01*
X11951928Y-11639214D02*
X11951928Y-11439214D01*
X11951928Y-11467786D02*
X11966214Y-11453500D01*
X11994786Y-11439214D01*
X12037643Y-11439214D01*
X12066214Y-11453500D01*
X12080500Y-11482071D01*
X12080500Y-11639214D01*
X12080500Y-11482071D02*
X12094786Y-11453500D01*
X12123357Y-11439214D01*
X12166214Y-11439214D01*
X12194786Y-11453500D01*
X12209071Y-11482071D01*
X12209071Y-11639214D01*
X12351928Y-11639214D02*
X12351928Y-11439214D01*
X12351928Y-11467786D02*
X12366214Y-11453500D01*
X12394786Y-11439214D01*
X12437643Y-11439214D01*
X12466214Y-11453500D01*
X12480500Y-11482071D01*
X12480500Y-11639214D01*
X12480500Y-11482071D02*
X12494786Y-11453500D01*
X12523357Y-11439214D01*
X12566214Y-11439214D01*
X12594786Y-11453500D01*
X12609071Y-11482071D01*
X12609071Y-11639214D01*
X13194786Y-11324929D02*
X12937643Y-11710643D01*
X13580500Y-11339214D02*
X13609071Y-11339214D01*
X13637643Y-11353500D01*
X13651928Y-11367786D01*
X13666214Y-11396357D01*
X13680500Y-11453500D01*
X13680500Y-11524929D01*
X13666214Y-11582071D01*
X13651928Y-11610643D01*
X13637643Y-11624929D01*
X13609071Y-11639214D01*
X13580500Y-11639214D01*
X13551928Y-11624929D01*
X13537643Y-11610643D01*
X13523357Y-11582071D01*
X13509071Y-11524929D01*
X13509071Y-11453500D01*
X13523357Y-11396357D01*
X13537643Y-11367786D01*
X13551928Y-11353500D01*
X13580500Y-11339214D01*
X13809071Y-11610643D02*
X13823357Y-11624929D01*
X13809071Y-11639214D01*
X13794786Y-11624929D01*
X13809071Y-11610643D01*
X13809071Y-11639214D01*
X14009071Y-11339214D02*
X14037643Y-11339214D01*
X14066214Y-11353500D01*
X14080500Y-11367786D01*
X14094786Y-11396357D01*
X14109071Y-11453500D01*
X14109071Y-11524929D01*
X14094786Y-11582071D01*
X14080500Y-11610643D01*
X14066214Y-11624929D01*
X14037643Y-11639214D01*
X14009071Y-11639214D01*
X13980500Y-11624929D01*
X13966214Y-11610643D01*
X13951928Y-11582071D01*
X13937643Y-11524929D01*
X13937643Y-11453500D01*
X13951928Y-11396357D01*
X13966214Y-11367786D01*
X13980500Y-11353500D01*
X14009071Y-11339214D01*
X14223357Y-11367786D02*
X14237643Y-11353500D01*
X14266214Y-11339214D01*
X14337643Y-11339214D01*
X14366214Y-11353500D01*
X14380500Y-11367786D01*
X14394786Y-11396357D01*
X14394786Y-11424929D01*
X14380500Y-11467786D01*
X14209071Y-11639214D01*
X14394786Y-11639214D01*
X14651928Y-11439214D02*
X14651928Y-11639214D01*
X14580500Y-11324929D02*
X14509071Y-11539214D01*
X14694786Y-11539214D01*
X14794786Y-11339214D02*
X14794786Y-11396357D01*
X14909071Y-11339214D02*
X14909071Y-11396357D01*
X15351928Y-11753500D02*
X15337643Y-11739214D01*
X15309071Y-11696357D01*
X15294786Y-11667786D01*
X15280500Y-11624929D01*
X15266214Y-11553500D01*
X15266214Y-11496357D01*
X15280500Y-11424929D01*
X15294786Y-11382071D01*
X15309071Y-11353500D01*
X15337643Y-11310643D01*
X15351928Y-11296357D01*
X15594786Y-11439214D02*
X15594786Y-11639214D01*
X15523357Y-11324929D02*
X15451928Y-11539214D01*
X15637643Y-11539214D01*
X15980500Y-11639214D02*
X15980500Y-11339214D01*
X16109071Y-11639214D02*
X16109071Y-11482071D01*
X16094786Y-11453500D01*
X16066214Y-11439214D01*
X16023357Y-11439214D01*
X15994786Y-11453500D01*
X15980500Y-11467786D01*
X16294786Y-11639214D02*
X16266214Y-11624929D01*
X16251928Y-11610643D01*
X16237643Y-11582071D01*
X16237643Y-11496357D01*
X16251928Y-11467786D01*
X16266214Y-11453500D01*
X16294786Y-11439214D01*
X16337643Y-11439214D01*
X16366214Y-11453500D01*
X16380500Y-11467786D01*
X16394786Y-11496357D01*
X16394786Y-11582071D01*
X16380500Y-11610643D01*
X16366214Y-11624929D01*
X16337643Y-11639214D01*
X16294786Y-11639214D01*
X16566214Y-11639214D02*
X16537643Y-11624929D01*
X16523357Y-11596357D01*
X16523357Y-11339214D01*
X16794786Y-11624929D02*
X16766214Y-11639214D01*
X16709071Y-11639214D01*
X16680500Y-11624929D01*
X16666214Y-11596357D01*
X16666214Y-11482071D01*
X16680500Y-11453500D01*
X16709071Y-11439214D01*
X16766214Y-11439214D01*
X16794786Y-11453500D01*
X16809071Y-11482071D01*
X16809071Y-11510643D01*
X16666214Y-11539214D01*
X16923357Y-11624929D02*
X16951928Y-11639214D01*
X17009071Y-11639214D01*
X17037643Y-11624929D01*
X17051928Y-11596357D01*
X17051928Y-11582071D01*
X17037643Y-11553500D01*
X17009071Y-11539214D01*
X16966214Y-11539214D01*
X16937643Y-11524929D01*
X16923357Y-11496357D01*
X16923357Y-11482071D01*
X16937643Y-11453500D01*
X16966214Y-11439214D01*
X17009071Y-11439214D01*
X17037643Y-11453500D01*
X17151928Y-11753500D02*
X17166214Y-11739214D01*
X17194786Y-11696357D01*
X17209071Y-11667786D01*
X17223357Y-11624929D01*
X17237643Y-11553500D01*
X17237643Y-11496357D01*
X17223357Y-11424929D01*
X17209071Y-11382071D01*
X17194786Y-11353500D01*
X17166214Y-11310643D01*
X17151928Y-11296357D01*
X10665500Y-11899500D02*
G75*
G03X10665500Y-11899500I-40000J0D01*
G01*
X11009071Y-11735214D02*
X11037643Y-11735214D01*
X11066214Y-11749500D01*
X11080500Y-11763786D01*
X11094786Y-11792357D01*
X11109071Y-11849500D01*
X11109071Y-11920929D01*
X11094786Y-11978071D01*
X11080500Y-12006643D01*
X11066214Y-12020929D01*
X11037643Y-12035214D01*
X11009071Y-12035214D01*
X10980500Y-12020929D01*
X10966214Y-12006643D01*
X10951928Y-11978071D01*
X10937643Y-11920929D01*
X10937643Y-11849500D01*
X10951928Y-11792357D01*
X10966214Y-11763786D01*
X10980500Y-11749500D01*
X11009071Y-11735214D01*
X11237643Y-12006643D02*
X11251928Y-12020929D01*
X11237643Y-12035214D01*
X11223357Y-12020929D01*
X11237643Y-12006643D01*
X11237643Y-12035214D01*
X11423357Y-11863786D02*
X11394786Y-11849500D01*
X11380500Y-11835214D01*
X11366214Y-11806643D01*
X11366214Y-11792357D01*
X11380500Y-11763786D01*
X11394786Y-11749500D01*
X11423357Y-11735214D01*
X11480500Y-11735214D01*
X11509071Y-11749500D01*
X11523357Y-11763786D01*
X11537643Y-11792357D01*
X11537643Y-11806643D01*
X11523357Y-11835214D01*
X11509071Y-11849500D01*
X11480500Y-11863786D01*
X11423357Y-11863786D01*
X11394786Y-11878071D01*
X11380500Y-11892357D01*
X11366214Y-11920929D01*
X11366214Y-11978071D01*
X11380500Y-12006643D01*
X11394786Y-12020929D01*
X11423357Y-12035214D01*
X11480500Y-12035214D01*
X11509071Y-12020929D01*
X11523357Y-12006643D01*
X11537643Y-11978071D01*
X11537643Y-11920929D01*
X11523357Y-11892357D01*
X11509071Y-11878071D01*
X11480500Y-11863786D01*
X11723357Y-11735214D02*
X11751928Y-11735214D01*
X11780500Y-11749500D01*
X11794786Y-11763786D01*
X11809071Y-11792357D01*
X11823357Y-11849500D01*
X11823357Y-11920929D01*
X11809071Y-11978071D01*
X11794786Y-12006643D01*
X11780500Y-12020929D01*
X11751928Y-12035214D01*
X11723357Y-12035214D01*
X11694786Y-12020929D01*
X11680500Y-12006643D01*
X11666214Y-11978071D01*
X11651928Y-11920929D01*
X11651928Y-11849500D01*
X11666214Y-11792357D01*
X11680500Y-11763786D01*
X11694786Y-11749500D01*
X11723357Y-11735214D01*
X11951928Y-12035214D02*
X11951928Y-11835214D01*
X11951928Y-11863786D02*
X11966214Y-11849500D01*
X11994786Y-11835214D01*
X12037643Y-11835214D01*
X12066214Y-11849500D01*
X12080500Y-11878071D01*
X12080500Y-12035214D01*
X12080500Y-11878071D02*
X12094786Y-11849500D01*
X12123357Y-11835214D01*
X12166214Y-11835214D01*
X12194786Y-11849500D01*
X12209071Y-11878071D01*
X12209071Y-12035214D01*
X12351928Y-12035214D02*
X12351928Y-11835214D01*
X12351928Y-11863786D02*
X12366214Y-11849500D01*
X12394786Y-11835214D01*
X12437643Y-11835214D01*
X12466214Y-11849500D01*
X12480500Y-11878071D01*
X12480500Y-12035214D01*
X12480500Y-11878071D02*
X12494786Y-11849500D01*
X12523357Y-11835214D01*
X12566214Y-11835214D01*
X12594786Y-11849500D01*
X12609071Y-11878071D01*
X12609071Y-12035214D01*
X13194786Y-11720929D02*
X12937643Y-12106643D01*
X13580500Y-11735214D02*
X13609071Y-11735214D01*
X13637643Y-11749500D01*
X13651928Y-11763786D01*
X13666214Y-11792357D01*
X13680500Y-11849500D01*
X13680500Y-11920929D01*
X13666214Y-11978071D01*
X13651928Y-12006643D01*
X13637643Y-12020929D01*
X13609071Y-12035214D01*
X13580500Y-12035214D01*
X13551928Y-12020929D01*
X13537643Y-12006643D01*
X13523357Y-11978071D01*
X13509071Y-11920929D01*
X13509071Y-11849500D01*
X13523357Y-11792357D01*
X13537643Y-11763786D01*
X13551928Y-11749500D01*
X13580500Y-11735214D01*
X13809071Y-12006643D02*
X13823357Y-12020929D01*
X13809071Y-12035214D01*
X13794786Y-12020929D01*
X13809071Y-12006643D01*
X13809071Y-12035214D01*
X14009071Y-11735214D02*
X14037643Y-11735214D01*
X14066214Y-11749500D01*
X14080500Y-11763786D01*
X14094786Y-11792357D01*
X14109071Y-11849500D01*
X14109071Y-11920929D01*
X14094786Y-11978071D01*
X14080500Y-12006643D01*
X14066214Y-12020929D01*
X14037643Y-12035214D01*
X14009071Y-12035214D01*
X13980500Y-12020929D01*
X13966214Y-12006643D01*
X13951928Y-11978071D01*
X13937643Y-11920929D01*
X13937643Y-11849500D01*
X13951928Y-11792357D01*
X13966214Y-11763786D01*
X13980500Y-11749500D01*
X14009071Y-11735214D01*
X14209071Y-11735214D02*
X14394786Y-11735214D01*
X14294786Y-11849500D01*
X14337643Y-11849500D01*
X14366214Y-11863786D01*
X14380500Y-11878071D01*
X14394786Y-11906643D01*
X14394786Y-11978071D01*
X14380500Y-12006643D01*
X14366214Y-12020929D01*
X14337643Y-12035214D01*
X14251928Y-12035214D01*
X14223357Y-12020929D01*
X14209071Y-12006643D01*
X14680500Y-12035214D02*
X14509071Y-12035214D01*
X14594786Y-12035214D02*
X14594786Y-11735214D01*
X14566214Y-11778071D01*
X14537643Y-11806643D01*
X14509071Y-11820929D01*
X14794786Y-11735214D02*
X14794786Y-11792357D01*
X14909071Y-11735214D02*
X14909071Y-11792357D01*
X15351928Y-12149500D02*
X15337643Y-12135214D01*
X15309071Y-12092357D01*
X15294786Y-12063786D01*
X15280500Y-12020929D01*
X15266214Y-11949500D01*
X15266214Y-11892357D01*
X15280500Y-11820929D01*
X15294786Y-11778071D01*
X15309071Y-11749500D01*
X15337643Y-11706643D01*
X15351928Y-11692357D01*
X15451928Y-11763786D02*
X15466214Y-11749500D01*
X15494786Y-11735214D01*
X15566214Y-11735214D01*
X15594786Y-11749500D01*
X15609071Y-11763786D01*
X15623357Y-11792357D01*
X15623357Y-11820929D01*
X15609071Y-11863786D01*
X15437643Y-12035214D01*
X15623357Y-12035214D01*
X15880500Y-11835214D02*
X15880500Y-12035214D01*
X15809071Y-11720929D02*
X15737643Y-11935214D01*
X15923357Y-11935214D01*
X16266214Y-12035214D02*
X16266214Y-11735214D01*
X16394786Y-12035214D02*
X16394786Y-11878071D01*
X16380500Y-11849500D01*
X16351928Y-11835214D01*
X16309071Y-11835214D01*
X16280500Y-11849500D01*
X16266214Y-11863786D01*
X16580500Y-12035214D02*
X16551928Y-12020929D01*
X16537643Y-12006643D01*
X16523357Y-11978071D01*
X16523357Y-11892357D01*
X16537643Y-11863786D01*
X16551928Y-11849500D01*
X16580500Y-11835214D01*
X16623357Y-11835214D01*
X16651928Y-11849500D01*
X16666214Y-11863786D01*
X16680500Y-11892357D01*
X16680500Y-11978071D01*
X16666214Y-12006643D01*
X16651928Y-12020929D01*
X16623357Y-12035214D01*
X16580500Y-12035214D01*
X16851928Y-12035214D02*
X16823357Y-12020929D01*
X16809071Y-11992357D01*
X16809071Y-11735214D01*
X17080500Y-12020929D02*
X17051928Y-12035214D01*
X16994786Y-12035214D01*
X16966214Y-12020929D01*
X16951928Y-11992357D01*
X16951928Y-11878071D01*
X16966214Y-11849500D01*
X16994786Y-11835214D01*
X17051928Y-11835214D01*
X17080500Y-11849500D01*
X17094786Y-11878071D01*
X17094786Y-11906643D01*
X16951928Y-11935214D01*
X17209071Y-12020929D02*
X17237643Y-12035214D01*
X17294786Y-12035214D01*
X17323357Y-12020929D01*
X17337643Y-11992357D01*
X17337643Y-11978071D01*
X17323357Y-11949500D01*
X17294786Y-11935214D01*
X17251928Y-11935214D01*
X17223357Y-11920929D01*
X17209071Y-11892357D01*
X17209071Y-11878071D01*
X17223357Y-11849500D01*
X17251928Y-11835214D01*
X17294786Y-11835214D01*
X17323357Y-11849500D01*
X17437643Y-12149500D02*
X17451928Y-12135214D01*
X17480500Y-12092357D01*
X17494786Y-12063786D01*
X17509071Y-12020929D01*
X17523357Y-11949500D01*
X17523357Y-11892357D01*
X17509071Y-11820929D01*
X17494786Y-11778071D01*
X17480500Y-11749500D01*
X17451928Y-11706643D01*
X17437643Y-11692357D01*
X10615500Y-12245500D02*
X10615500Y-12345500D01*
X10565500Y-12295500D02*
X10665500Y-12295500D01*
X11109071Y-12431214D02*
X10937643Y-12431214D01*
X11023357Y-12431214D02*
X11023357Y-12131214D01*
X10994786Y-12174071D01*
X10966214Y-12202643D01*
X10937643Y-12216929D01*
X11237643Y-12402643D02*
X11251928Y-12416929D01*
X11237643Y-12431214D01*
X11223357Y-12416929D01*
X11237643Y-12402643D01*
X11237643Y-12431214D01*
X11437643Y-12131214D02*
X11466214Y-12131214D01*
X11494786Y-12145500D01*
X11509071Y-12159786D01*
X11523357Y-12188357D01*
X11537643Y-12245500D01*
X11537643Y-12316929D01*
X11523357Y-12374071D01*
X11509071Y-12402643D01*
X11494786Y-12416929D01*
X11466214Y-12431214D01*
X11437643Y-12431214D01*
X11409071Y-12416929D01*
X11394786Y-12402643D01*
X11380500Y-12374071D01*
X11366214Y-12316929D01*
X11366214Y-12245500D01*
X11380500Y-12188357D01*
X11394786Y-12159786D01*
X11409071Y-12145500D01*
X11437643Y-12131214D01*
X11723357Y-12131214D02*
X11751928Y-12131214D01*
X11780500Y-12145500D01*
X11794786Y-12159786D01*
X11809071Y-12188357D01*
X11823357Y-12245500D01*
X11823357Y-12316929D01*
X11809071Y-12374071D01*
X11794786Y-12402643D01*
X11780500Y-12416929D01*
X11751928Y-12431214D01*
X11723357Y-12431214D01*
X11694786Y-12416929D01*
X11680500Y-12402643D01*
X11666214Y-12374071D01*
X11651928Y-12316929D01*
X11651928Y-12245500D01*
X11666214Y-12188357D01*
X11680500Y-12159786D01*
X11694786Y-12145500D01*
X11723357Y-12131214D01*
X11951928Y-12431214D02*
X11951928Y-12231214D01*
X11951928Y-12259786D02*
X11966214Y-12245500D01*
X11994786Y-12231214D01*
X12037643Y-12231214D01*
X12066214Y-12245500D01*
X12080500Y-12274071D01*
X12080500Y-12431214D01*
X12080500Y-12274071D02*
X12094786Y-12245500D01*
X12123357Y-12231214D01*
X12166214Y-12231214D01*
X12194786Y-12245500D01*
X12209071Y-12274071D01*
X12209071Y-12431214D01*
X12351928Y-12431214D02*
X12351928Y-12231214D01*
X12351928Y-12259786D02*
X12366214Y-12245500D01*
X12394786Y-12231214D01*
X12437643Y-12231214D01*
X12466214Y-12245500D01*
X12480500Y-12274071D01*
X12480500Y-12431214D01*
X12480500Y-12274071D02*
X12494786Y-12245500D01*
X12523357Y-12231214D01*
X12566214Y-12231214D01*
X12594786Y-12245500D01*
X12609071Y-12274071D01*
X12609071Y-12431214D01*
X13194786Y-12116929D02*
X12937643Y-12502643D01*
X13580500Y-12131214D02*
X13609071Y-12131214D01*
X13637643Y-12145500D01*
X13651928Y-12159786D01*
X13666214Y-12188357D01*
X13680500Y-12245500D01*
X13680500Y-12316929D01*
X13666214Y-12374071D01*
X13651928Y-12402643D01*
X13637643Y-12416929D01*
X13609071Y-12431214D01*
X13580500Y-12431214D01*
X13551928Y-12416929D01*
X13537643Y-12402643D01*
X13523357Y-12374071D01*
X13509071Y-12316929D01*
X13509071Y-12245500D01*
X13523357Y-12188357D01*
X13537643Y-12159786D01*
X13551928Y-12145500D01*
X13580500Y-12131214D01*
X13809071Y-12402643D02*
X13823357Y-12416929D01*
X13809071Y-12431214D01*
X13794786Y-12416929D01*
X13809071Y-12402643D01*
X13809071Y-12431214D01*
X14009071Y-12131214D02*
X14037643Y-12131214D01*
X14066214Y-12145500D01*
X14080500Y-12159786D01*
X14094786Y-12188357D01*
X14109071Y-12245500D01*
X14109071Y-12316929D01*
X14094786Y-12374071D01*
X14080500Y-12402643D01*
X14066214Y-12416929D01*
X14037643Y-12431214D01*
X14009071Y-12431214D01*
X13980500Y-12416929D01*
X13966214Y-12402643D01*
X13951928Y-12374071D01*
X13937643Y-12316929D01*
X13937643Y-12245500D01*
X13951928Y-12188357D01*
X13966214Y-12159786D01*
X13980500Y-12145500D01*
X14009071Y-12131214D01*
X14209071Y-12131214D02*
X14394786Y-12131214D01*
X14294786Y-12245500D01*
X14337643Y-12245500D01*
X14366214Y-12259786D01*
X14380500Y-12274071D01*
X14394786Y-12302643D01*
X14394786Y-12374071D01*
X14380500Y-12402643D01*
X14366214Y-12416929D01*
X14337643Y-12431214D01*
X14251928Y-12431214D01*
X14223357Y-12416929D01*
X14209071Y-12402643D01*
X14537643Y-12431214D02*
X14594786Y-12431214D01*
X14623357Y-12416929D01*
X14637643Y-12402643D01*
X14666214Y-12359786D01*
X14680500Y-12302643D01*
X14680500Y-12188357D01*
X14666214Y-12159786D01*
X14651928Y-12145500D01*
X14623357Y-12131214D01*
X14566214Y-12131214D01*
X14537643Y-12145500D01*
X14523357Y-12159786D01*
X14509071Y-12188357D01*
X14509071Y-12259786D01*
X14523357Y-12288357D01*
X14537643Y-12302643D01*
X14566214Y-12316929D01*
X14623357Y-12316929D01*
X14651928Y-12302643D01*
X14666214Y-12288357D01*
X14680500Y-12259786D01*
X14794786Y-12131214D02*
X14794786Y-12188357D01*
X14909071Y-12131214D02*
X14909071Y-12188357D01*
X15351928Y-12545500D02*
X15337643Y-12531214D01*
X15309071Y-12488357D01*
X15294786Y-12459786D01*
X15280500Y-12416929D01*
X15266214Y-12345500D01*
X15266214Y-12288357D01*
X15280500Y-12216929D01*
X15294786Y-12174071D01*
X15309071Y-12145500D01*
X15337643Y-12102643D01*
X15351928Y-12088357D01*
X15623357Y-12431214D02*
X15451928Y-12431214D01*
X15537643Y-12431214D02*
X15537643Y-12131214D01*
X15509071Y-12174071D01*
X15480500Y-12202643D01*
X15451928Y-12216929D01*
X15723357Y-12131214D02*
X15923357Y-12131214D01*
X15794786Y-12431214D01*
X16266214Y-12431214D02*
X16266214Y-12131214D01*
X16394786Y-12431214D02*
X16394786Y-12274071D01*
X16380500Y-12245500D01*
X16351928Y-12231214D01*
X16309071Y-12231214D01*
X16280500Y-12245500D01*
X16266214Y-12259786D01*
X16580500Y-12431214D02*
X16551928Y-12416929D01*
X16537643Y-12402643D01*
X16523357Y-12374071D01*
X16523357Y-12288357D01*
X16537643Y-12259786D01*
X16551928Y-12245500D01*
X16580500Y-12231214D01*
X16623357Y-12231214D01*
X16651928Y-12245500D01*
X16666214Y-12259786D01*
X16680500Y-12288357D01*
X16680500Y-12374071D01*
X16666214Y-12402643D01*
X16651928Y-12416929D01*
X16623357Y-12431214D01*
X16580500Y-12431214D01*
X16851928Y-12431214D02*
X16823357Y-12416929D01*
X16809071Y-12388357D01*
X16809071Y-12131214D01*
X17080500Y-12416929D02*
X17051928Y-12431214D01*
X16994786Y-12431214D01*
X16966214Y-12416929D01*
X16951928Y-12388357D01*
X16951928Y-12274071D01*
X16966214Y-12245500D01*
X16994786Y-12231214D01*
X17051928Y-12231214D01*
X17080500Y-12245500D01*
X17094786Y-12274071D01*
X17094786Y-12302643D01*
X16951928Y-12331214D01*
X17209071Y-12416929D02*
X17237643Y-12431214D01*
X17294786Y-12431214D01*
X17323357Y-12416929D01*
X17337643Y-12388357D01*
X17337643Y-12374071D01*
X17323357Y-12345500D01*
X17294786Y-12331214D01*
X17251928Y-12331214D01*
X17223357Y-12316929D01*
X17209071Y-12288357D01*
X17209071Y-12274071D01*
X17223357Y-12245500D01*
X17251928Y-12231214D01*
X17294786Y-12231214D01*
X17323357Y-12245500D01*
X17437643Y-12545500D02*
X17451928Y-12531214D01*
X17480500Y-12488357D01*
X17494786Y-12459786D01*
X17509071Y-12416929D01*
X17523357Y-12345500D01*
X17523357Y-12288357D01*
X17509071Y-12216929D01*
X17494786Y-12174071D01*
X17480500Y-12145500D01*
X17451928Y-12102643D01*
X17437643Y-12088357D01*
X10646462Y-12737462D02*
X10646462Y-12645538D01*
X10554538Y-12645538D01*
X10554538Y-12737462D01*
X10646462Y-12737462D01*
X11109071Y-12827214D02*
X10937643Y-12827214D01*
X11023357Y-12827214D02*
X11023357Y-12527214D01*
X10994786Y-12570071D01*
X10966214Y-12598643D01*
X10937643Y-12612929D01*
X11237643Y-12798643D02*
X11251928Y-12812929D01*
X11237643Y-12827214D01*
X11223357Y-12812929D01*
X11237643Y-12798643D01*
X11237643Y-12827214D01*
X11351928Y-12527214D02*
X11537643Y-12527214D01*
X11437643Y-12641500D01*
X11480500Y-12641500D01*
X11509071Y-12655786D01*
X11523357Y-12670071D01*
X11537643Y-12698643D01*
X11537643Y-12770071D01*
X11523357Y-12798643D01*
X11509071Y-12812929D01*
X11480500Y-12827214D01*
X11394786Y-12827214D01*
X11366214Y-12812929D01*
X11351928Y-12798643D01*
X11723357Y-12527214D02*
X11751928Y-12527214D01*
X11780500Y-12541500D01*
X11794786Y-12555786D01*
X11809071Y-12584357D01*
X11823357Y-12641500D01*
X11823357Y-12712929D01*
X11809071Y-12770071D01*
X11794786Y-12798643D01*
X11780500Y-12812929D01*
X11751928Y-12827214D01*
X11723357Y-12827214D01*
X11694786Y-12812929D01*
X11680500Y-12798643D01*
X11666214Y-12770071D01*
X11651928Y-12712929D01*
X11651928Y-12641500D01*
X11666214Y-12584357D01*
X11680500Y-12555786D01*
X11694786Y-12541500D01*
X11723357Y-12527214D01*
X11951928Y-12827214D02*
X11951928Y-12627214D01*
X11951928Y-12655786D02*
X11966214Y-12641500D01*
X11994786Y-12627214D01*
X12037643Y-12627214D01*
X12066214Y-12641500D01*
X12080500Y-12670071D01*
X12080500Y-12827214D01*
X12080500Y-12670071D02*
X12094786Y-12641500D01*
X12123357Y-12627214D01*
X12166214Y-12627214D01*
X12194786Y-12641500D01*
X12209071Y-12670071D01*
X12209071Y-12827214D01*
X12351928Y-12827214D02*
X12351928Y-12627214D01*
X12351928Y-12655786D02*
X12366214Y-12641500D01*
X12394786Y-12627214D01*
X12437643Y-12627214D01*
X12466214Y-12641500D01*
X12480500Y-12670071D01*
X12480500Y-12827214D01*
X12480500Y-12670071D02*
X12494786Y-12641500D01*
X12523357Y-12627214D01*
X12566214Y-12627214D01*
X12594786Y-12641500D01*
X12609071Y-12670071D01*
X12609071Y-12827214D01*
X13194786Y-12512929D02*
X12937643Y-12898643D01*
X13580500Y-12527214D02*
X13609071Y-12527214D01*
X13637643Y-12541500D01*
X13651928Y-12555786D01*
X13666214Y-12584357D01*
X13680500Y-12641500D01*
X13680500Y-12712929D01*
X13666214Y-12770071D01*
X13651928Y-12798643D01*
X13637643Y-12812929D01*
X13609071Y-12827214D01*
X13580500Y-12827214D01*
X13551928Y-12812929D01*
X13537643Y-12798643D01*
X13523357Y-12770071D01*
X13509071Y-12712929D01*
X13509071Y-12641500D01*
X13523357Y-12584357D01*
X13537643Y-12555786D01*
X13551928Y-12541500D01*
X13580500Y-12527214D01*
X13809071Y-12798643D02*
X13823357Y-12812929D01*
X13809071Y-12827214D01*
X13794786Y-12812929D01*
X13809071Y-12798643D01*
X13809071Y-12827214D01*
X14009071Y-12527214D02*
X14037643Y-12527214D01*
X14066214Y-12541500D01*
X14080500Y-12555786D01*
X14094786Y-12584357D01*
X14109071Y-12641500D01*
X14109071Y-12712929D01*
X14094786Y-12770071D01*
X14080500Y-12798643D01*
X14066214Y-12812929D01*
X14037643Y-12827214D01*
X14009071Y-12827214D01*
X13980500Y-12812929D01*
X13966214Y-12798643D01*
X13951928Y-12770071D01*
X13937643Y-12712929D01*
X13937643Y-12641500D01*
X13951928Y-12584357D01*
X13966214Y-12555786D01*
X13980500Y-12541500D01*
X14009071Y-12527214D01*
X14380500Y-12527214D02*
X14237643Y-12527214D01*
X14223357Y-12670071D01*
X14237643Y-12655786D01*
X14266214Y-12641500D01*
X14337643Y-12641500D01*
X14366214Y-12655786D01*
X14380500Y-12670071D01*
X14394786Y-12698643D01*
X14394786Y-12770071D01*
X14380500Y-12798643D01*
X14366214Y-12812929D01*
X14337643Y-12827214D01*
X14266214Y-12827214D01*
X14237643Y-12812929D01*
X14223357Y-12798643D01*
X14680500Y-12827214D02*
X14509071Y-12827214D01*
X14594786Y-12827214D02*
X14594786Y-12527214D01*
X14566214Y-12570071D01*
X14537643Y-12598643D01*
X14509071Y-12612929D01*
X14794786Y-12527214D02*
X14794786Y-12584357D01*
X14909071Y-12527214D02*
X14909071Y-12584357D01*
X15351928Y-12941500D02*
X15337643Y-12927214D01*
X15309071Y-12884357D01*
X15294786Y-12855786D01*
X15280500Y-12812929D01*
X15266214Y-12741500D01*
X15266214Y-12684357D01*
X15280500Y-12612929D01*
X15294786Y-12570071D01*
X15309071Y-12541500D01*
X15337643Y-12498643D01*
X15351928Y-12484357D01*
X15594786Y-12527214D02*
X15537643Y-12527214D01*
X15509071Y-12541500D01*
X15494786Y-12555786D01*
X15466214Y-12598643D01*
X15451928Y-12655786D01*
X15451928Y-12770071D01*
X15466214Y-12798643D01*
X15480500Y-12812929D01*
X15509071Y-12827214D01*
X15566214Y-12827214D01*
X15594786Y-12812929D01*
X15609071Y-12798643D01*
X15623357Y-12770071D01*
X15623357Y-12698643D01*
X15609071Y-12670071D01*
X15594786Y-12655786D01*
X15566214Y-12641500D01*
X15509071Y-12641500D01*
X15480500Y-12655786D01*
X15466214Y-12670071D01*
X15451928Y-12698643D01*
X15980500Y-12827214D02*
X15980500Y-12527214D01*
X16109071Y-12827214D02*
X16109071Y-12670071D01*
X16094786Y-12641500D01*
X16066214Y-12627214D01*
X16023357Y-12627214D01*
X15994786Y-12641500D01*
X15980500Y-12655786D01*
X16294786Y-12827214D02*
X16266214Y-12812929D01*
X16251928Y-12798643D01*
X16237643Y-12770071D01*
X16237643Y-12684357D01*
X16251928Y-12655786D01*
X16266214Y-12641500D01*
X16294786Y-12627214D01*
X16337643Y-12627214D01*
X16366214Y-12641500D01*
X16380500Y-12655786D01*
X16394786Y-12684357D01*
X16394786Y-12770071D01*
X16380500Y-12798643D01*
X16366214Y-12812929D01*
X16337643Y-12827214D01*
X16294786Y-12827214D01*
X16566214Y-12827214D02*
X16537643Y-12812929D01*
X16523357Y-12784357D01*
X16523357Y-12527214D01*
X16794786Y-12812929D02*
X16766214Y-12827214D01*
X16709071Y-12827214D01*
X16680500Y-12812929D01*
X16666214Y-12784357D01*
X16666214Y-12670071D01*
X16680500Y-12641500D01*
X16709071Y-12627214D01*
X16766214Y-12627214D01*
X16794786Y-12641500D01*
X16809071Y-12670071D01*
X16809071Y-12698643D01*
X16666214Y-12727214D01*
X16923357Y-12812929D02*
X16951928Y-12827214D01*
X17009071Y-12827214D01*
X17037643Y-12812929D01*
X17051928Y-12784357D01*
X17051928Y-12770071D01*
X17037643Y-12741500D01*
X17009071Y-12727214D01*
X16966214Y-12727214D01*
X16937643Y-12712929D01*
X16923357Y-12684357D01*
X16923357Y-12670071D01*
X16937643Y-12641500D01*
X16966214Y-12627214D01*
X17009071Y-12627214D01*
X17037643Y-12641500D01*
X17151928Y-12941500D02*
X17166214Y-12927214D01*
X17194786Y-12884357D01*
X17209071Y-12855786D01*
X17223357Y-12812929D01*
X17237643Y-12741500D01*
X17237643Y-12684357D01*
X17223357Y-12612929D01*
X17209071Y-12570071D01*
X17194786Y-12541500D01*
X17166214Y-12498643D01*
X17151928Y-12484357D01*
M02*
