M48
; DRILL file {KiCad 5.1.6-c6e7f7d~86~ubuntu18.04.1} date Wed May 20 23:39:54 2020
; FORMAT={-:-/ absolute / metric / decimal}
; #@! TF.CreationDate,2020-05-20T23:39:54+02:00
; #@! TF.GenerationSoftware,Kicad,Pcbnew,5.1.6-c6e7f7d~86~ubuntu18.04.1
FMAT,2
METRIC
T1C0.400
T2C0.600
T3C0.800
T4C1.000
T5C1.300
%
G90
G05
T1
X-23.114Y33.934
T2
X-22.86Y64.16
X-20.86Y64.16
X-19.685Y23.52
X-17.685Y23.52
X-43.815Y30.6
X-43.815Y28.6
T3
X-41.275Y50.19
X-30.074Y16.358
X-23.114Y33.934
X-21.59Y36.22
X-18.542Y33.934
X-13.97Y75.59
X-13.97Y64.16
X-8.433Y36.779
X-8.255Y23.52
X-1.778Y23.52
X-36.83Y61.62
X-26.67Y61.62
X-25.4Y13.36
X-15.24Y13.36
X-49.49Y65.43
X-46.99Y65.43
X-33.02Y18.44
X-22.86Y18.44
X-31.75Y31.775
X-21.59Y31.775
X-33.02Y23.52
X-22.86Y23.52
X-36.195Y33.68
X-36.195Y23.52
X-34.9Y65.43
X-24.74Y65.43
X-19.304Y31.648
X-9.144Y31.648
X-46.99Y50.19
X-46.99Y40.03
T4
X-33.02Y10.82
X-33.02Y8.28
X-30.48Y10.82
X-30.48Y8.28
X-68.065Y52.92
X-62.865Y23.52
X-57.865Y23.52
X-52.665Y52.92
X-48.209Y60.046
X-48.209Y57.506
X-45.669Y60.046
X-45.669Y57.506
X-31.75Y28.6
X-29.21Y28.6
X-26.67Y28.6
X-24.13Y28.6
X-34.29Y71.78
X-31.75Y71.78
X-29.21Y71.78
X-26.67Y71.78
X-24.13Y71.78
T5
X-66.04Y10.185
X-61.04Y10.185
X-54.356Y10.262
X-49.356Y10.262
X-44.356Y10.262
X-39.356Y10.262
T0
M30
