G04 #@! TF.GenerationSoftware,KiCad,Pcbnew,5.1.5-52549c5~86~ubuntu18.04.1*
G04 #@! TF.CreationDate,2020-04-26T19:42:45+02:00*
G04 #@! TF.ProjectId,Wasserhahn,57617373-6572-4686-9168-6e2e6b696361,rev?*
G04 #@! TF.SameCoordinates,Original*
G04 #@! TF.FileFunction,Copper,L2,Bot*
G04 #@! TF.FilePolarity,Positive*
%FSLAX46Y46*%
G04 Gerber Fmt 4.6, Leading zero omitted, Abs format (unit mm)*
G04 Created by KiCad (PCBNEW 5.1.5-52549c5~86~ubuntu18.04.1) date 2020-04-26 19:42:45*
%MOMM*%
%LPD*%
G04 APERTURE LIST*
%ADD10R,2.600000X2.600000*%
%ADD11C,2.600000*%
%ADD12C,1.600000*%
%ADD13R,1.600000X1.600000*%
%ADD14O,1.600000X1.600000*%
%ADD15R,0.912500X0.850000*%
%ADD16R,4.300000X4.300000*%
%ADD17R,1.200000X1.200000*%
%ADD18C,1.200000*%
%ADD19R,1.700000X1.700000*%
%ADD20O,1.700000X1.700000*%
%ADD21C,2.300000*%
%ADD22R,2.000000X2.300000*%
%ADD23C,1.400000*%
%ADD24C,0.500000*%
%ADD25C,0.250000*%
%ADD26C,0.530000*%
%ADD27C,1.000000*%
G04 APERTURE END LIST*
D10*
X147320000Y-95885000D03*
D11*
X142320000Y-95885000D03*
X137320000Y-95885000D03*
X132320000Y-95885000D03*
D12*
X172005000Y-82550000D03*
D13*
X167005000Y-82550000D03*
D12*
X150495000Y-82550000D03*
D14*
X150495000Y-72390000D03*
D15*
X166020000Y-49682500D03*
X164520000Y-49682500D03*
X163020000Y-49682500D03*
X161520000Y-49682500D03*
X160020000Y-49682500D03*
X158520000Y-49682500D03*
X157020000Y-49682500D03*
X155520000Y-49682500D03*
X154020000Y-49682500D03*
X154020000Y-67157500D03*
X155520000Y-67157500D03*
X157020000Y-67157500D03*
X158520000Y-67157500D03*
X160020000Y-67157500D03*
X161520000Y-67157500D03*
X163020000Y-67157500D03*
X164520000Y-67157500D03*
X166020000Y-67157500D03*
D16*
X159440000Y-57300000D03*
D17*
X142875000Y-77470000D03*
D18*
X142875000Y-75470000D03*
X165830000Y-41910000D03*
D17*
X163830000Y-41910000D03*
D13*
X139700000Y-40640000D03*
D12*
X137200000Y-40640000D03*
D10*
X120650000Y-95885000D03*
D11*
X125650000Y-95885000D03*
D19*
X162560000Y-77470000D03*
D20*
X160020000Y-77470000D03*
X157480000Y-77470000D03*
X154940000Y-77470000D03*
D19*
X152400000Y-34290000D03*
D20*
X154940000Y-34290000D03*
X157480000Y-34290000D03*
X160020000Y-34290000D03*
X162560000Y-34290000D03*
D19*
X156210000Y-97790000D03*
D20*
X153670000Y-97790000D03*
X156210000Y-95250000D03*
X153670000Y-95250000D03*
D21*
X118625000Y-53150000D03*
D22*
X123825000Y-82550000D03*
D21*
X128825000Y-82550000D03*
X134025000Y-53150000D03*
D12*
X163830000Y-87630000D03*
D14*
X153670000Y-87630000D03*
D12*
X163830000Y-82550000D03*
D14*
X153670000Y-82550000D03*
X160020000Y-40640000D03*
D12*
X149860000Y-40640000D03*
D14*
X139700000Y-66040000D03*
D12*
X139700000Y-55880000D03*
X149860000Y-44450000D03*
D14*
X160020000Y-44450000D03*
X171450000Y-92710000D03*
D12*
X161290000Y-92710000D03*
D23*
X178435000Y-82550000D03*
X172720000Y-41910000D03*
X172720000Y-36830000D03*
X182880000Y-82550000D03*
X145415000Y-55880000D03*
X165100000Y-69850000D03*
D24*
X139700000Y-64908630D02*
X149860000Y-54748630D01*
D25*
X139700000Y-66040000D02*
X139700000Y-64908630D01*
D24*
X149860000Y-54748630D02*
X149860000Y-49530000D01*
X150012500Y-49682500D02*
X154020000Y-49682500D01*
D25*
X149860000Y-49530000D02*
X150012500Y-49682500D01*
X137320000Y-95885000D02*
X137320000Y-94896409D01*
D24*
X139700000Y-93505000D02*
X137320000Y-95885000D01*
X139700000Y-66040000D02*
X139700000Y-93505000D01*
D25*
X166020000Y-42100000D02*
X165830000Y-41910000D01*
D24*
X166020000Y-49682500D02*
X166020000Y-42100000D01*
X160020000Y-30480000D02*
X160020000Y-34290000D01*
X142320000Y-97723477D02*
X142320000Y-95885000D01*
X132320000Y-95885000D02*
X132320000Y-97723477D01*
X132320000Y-97723477D02*
X134926523Y-100330000D01*
X134926523Y-100330000D02*
X139700000Y-100330000D01*
D25*
X142240000Y-97790000D02*
X142253477Y-97790000D01*
D24*
X139700000Y-100330000D02*
X142240000Y-97790000D01*
D25*
X142253477Y-97790000D02*
X142320000Y-97723477D01*
D24*
X153670000Y-97087081D02*
X153670000Y-95885000D01*
X166020000Y-49682500D02*
X166020000Y-51785000D01*
X166020000Y-51785000D02*
X165735000Y-52070000D01*
X165735000Y-52070000D02*
X159385000Y-52070000D01*
X158520000Y-51205000D02*
X158520000Y-49682500D01*
X159385000Y-52070000D02*
X158520000Y-51205000D01*
X159385000Y-52070000D02*
X156210000Y-52070000D01*
X154020000Y-54260000D02*
X154020000Y-67157500D01*
X156210000Y-52070000D02*
X154020000Y-54260000D01*
X159440000Y-54900000D02*
X159385000Y-54845000D01*
X159440000Y-57300000D02*
X159440000Y-54900000D01*
X159385000Y-54845000D02*
X159385000Y-52070000D01*
X154020000Y-67832500D02*
X152002500Y-69850000D01*
X154020000Y-67157500D02*
X154020000Y-67832500D01*
X152002500Y-69850000D02*
X150495000Y-69850000D01*
X147955000Y-71120000D02*
X147955000Y-75470000D01*
X149225000Y-69850000D02*
X147955000Y-71120000D01*
X142875000Y-75470000D02*
X147955000Y-75470000D01*
X152940000Y-75470000D02*
X154940000Y-77470000D01*
X147955000Y-75470000D02*
X152940000Y-75470000D01*
X149225000Y-69850000D02*
X150495000Y-69850000D01*
X142253477Y-95236523D02*
X144780000Y-92710000D01*
X151130000Y-92710000D02*
X153670000Y-95250000D01*
X144780000Y-92710000D02*
X151130000Y-92710000D01*
D25*
X160020000Y-34290000D02*
X160020000Y-33087919D01*
X160020000Y-33087919D02*
X160020000Y-30480000D01*
D24*
X142875000Y-103505000D02*
X139700000Y-100330000D01*
X160020000Y-30480000D02*
X182880000Y-30480000D01*
X182880000Y-30480000D02*
X182880000Y-71755000D01*
X160020000Y-34290000D02*
X160020000Y-35492081D01*
X160020000Y-35492081D02*
X160020000Y-36830000D01*
X160020000Y-36830000D02*
X172720000Y-36830000D01*
D25*
X172720000Y-36830000D02*
X172720000Y-36830000D01*
D24*
X165830000Y-41910000D02*
X172175001Y-41910000D01*
D25*
X172175001Y-41910000D02*
X172720000Y-41910000D01*
X172005000Y-82550000D02*
X172679991Y-82550000D01*
D24*
X182880000Y-82550000D02*
X182880000Y-102870000D01*
X182880000Y-102870000D02*
X182880000Y-103505000D01*
X182880000Y-103505000D02*
X142875000Y-103505000D01*
X182880000Y-71755000D02*
X182880000Y-82550000D01*
X118625000Y-53150000D02*
X118625000Y-45840000D01*
X123825000Y-40640000D02*
X137200000Y-40640000D01*
X118625000Y-45840000D02*
X123825000Y-40640000D01*
D25*
X154020000Y-54260000D02*
X154020000Y-60040000D01*
D24*
X137200000Y-40640000D02*
X137200000Y-31075000D01*
X137795000Y-30480000D02*
X160020000Y-30480000D01*
X137200000Y-31075000D02*
X137795000Y-30480000D01*
X172005000Y-82550000D02*
X178435000Y-82550000D01*
X149860000Y-44450000D02*
X149860000Y-40640000D01*
X151300000Y-34290000D02*
X152400000Y-34290000D01*
X149860000Y-35730000D02*
X151300000Y-34290000D01*
X149860000Y-40640000D02*
X149860000Y-35730000D01*
X162560000Y-81280000D02*
X163830000Y-82550000D01*
X162560000Y-77470000D02*
X162560000Y-81280000D01*
X166020000Y-67832500D02*
X166020000Y-67157500D01*
X162698630Y-82550000D02*
X161290000Y-83958630D01*
X163830000Y-82550000D02*
X162698630Y-82550000D01*
X161290000Y-83958630D02*
X161290000Y-92710000D01*
X163830000Y-82550000D02*
X167005000Y-82550000D01*
X139700000Y-54610000D02*
X139700000Y-55880000D01*
X149860000Y-44450000D02*
X139700000Y-54610000D01*
X139700000Y-55880000D02*
X145415000Y-55880000D01*
D25*
X145415000Y-55880000D02*
X145415000Y-55880000D01*
D24*
X165735000Y-69850000D02*
X166020000Y-70135000D01*
D25*
X165100000Y-69850000D02*
X165735000Y-69850000D01*
D24*
X166020000Y-74365000D02*
X166020000Y-70135000D01*
X166020000Y-70135000D02*
X166020000Y-67832500D01*
X135485000Y-54610000D02*
X134025000Y-53150000D01*
X139700000Y-54610000D02*
X135485000Y-54610000D01*
X139700000Y-40640000D02*
X149860000Y-40640000D01*
X162560000Y-77470000D02*
X165735000Y-77470000D01*
X165735000Y-74650000D02*
X166020000Y-74365000D01*
X165735000Y-77470000D02*
X165735000Y-74650000D01*
X163830000Y-41060000D02*
X163830000Y-41910000D01*
X163410000Y-40640000D02*
X163830000Y-41060000D01*
X160020000Y-40640000D02*
X163410000Y-40640000D01*
D26*
X161520000Y-49682500D02*
X161520000Y-46125000D01*
D24*
X161520000Y-46125000D02*
X161925000Y-45720000D01*
X161925000Y-45720000D02*
X161925000Y-41910000D01*
X161925000Y-41910000D02*
X163830000Y-41910000D01*
D27*
X120650000Y-84475000D02*
X122575000Y-82550000D01*
X120650000Y-95885000D02*
X120650000Y-84475000D01*
X123825000Y-82550000D02*
X122575000Y-82550000D01*
X128825000Y-92710000D02*
X128825000Y-82550000D01*
X125650000Y-95885000D02*
X128825000Y-92710000D01*
D24*
X161520000Y-67157500D02*
X161520000Y-72160000D01*
X161520000Y-72160000D02*
X160020000Y-73660000D01*
X160020000Y-73660000D02*
X160020000Y-77470000D01*
X160020000Y-67157500D02*
X160020000Y-70485000D01*
X160020000Y-70485000D02*
X157480000Y-73025000D01*
X157480000Y-73025000D02*
X157480000Y-77470000D01*
X155520000Y-49682500D02*
X155520000Y-37410000D01*
X154940000Y-36830000D02*
X154940000Y-34290000D01*
X155520000Y-37410000D02*
X154940000Y-36830000D01*
X157020000Y-49682500D02*
X157020000Y-37290000D01*
X157480000Y-36830000D02*
X157480000Y-34290000D01*
X157020000Y-37290000D02*
X157480000Y-36830000D01*
X150495000Y-82550000D02*
X150495000Y-83820000D01*
X150495000Y-83820000D02*
X151765000Y-85090000D01*
X151765000Y-85090000D02*
X154940000Y-85090000D01*
X154940000Y-85090000D02*
X158750000Y-88900000D01*
X156210000Y-97790000D02*
X158750000Y-97790000D01*
X158750000Y-88900000D02*
X158750000Y-97790000D01*
X158750000Y-97790000D02*
X171450000Y-97790000D01*
X171450000Y-92710000D02*
X171450000Y-97790000D01*
D25*
X155520000Y-71065000D02*
X155575000Y-71120000D01*
D24*
X155520000Y-67157500D02*
X155520000Y-71065000D01*
X150495000Y-72390000D02*
X155575000Y-72390000D01*
X155575000Y-72390000D02*
X155575000Y-71120000D01*
D25*
X164520000Y-66482500D02*
X164465000Y-66427500D01*
D24*
X164520000Y-67157500D02*
X164520000Y-66482500D01*
X164465000Y-66427500D02*
X164465000Y-65405000D01*
X164465000Y-65405000D02*
X165735000Y-64135000D01*
X165735000Y-64135000D02*
X168910000Y-64135000D01*
X168910000Y-64135000D02*
X169545000Y-64770000D01*
X169545000Y-64770000D02*
X169545000Y-85725000D01*
X167640000Y-87630000D02*
X163830000Y-87630000D01*
X169545000Y-85725000D02*
X167640000Y-87630000D01*
X156210000Y-90170000D02*
X153670000Y-87630000D01*
X156210000Y-95250000D02*
X156210000Y-90170000D01*
X149225000Y-77470000D02*
X142875000Y-77470000D01*
X150075000Y-77470000D02*
X149225000Y-77470000D01*
X153670000Y-82550000D02*
X153670000Y-81065000D01*
X153670000Y-81065000D02*
X150075000Y-77470000D01*
X142875000Y-78320000D02*
X142875000Y-77470000D01*
X152185000Y-87630000D02*
X142875000Y-78320000D01*
X153670000Y-87630000D02*
X152185000Y-87630000D01*
X160020000Y-49682500D02*
X160020000Y-44450000D01*
X158888630Y-44450000D02*
X160020000Y-44450000D01*
X158115000Y-38735000D02*
X158115000Y-43676370D01*
X158750000Y-38100000D02*
X158115000Y-38735000D01*
X180975000Y-101600000D02*
X180975000Y-38100000D01*
X180975000Y-38100000D02*
X158750000Y-38100000D01*
X147320000Y-95885000D02*
X147320000Y-101600000D01*
X147320000Y-101600000D02*
X180975000Y-101600000D01*
X158115000Y-43676370D02*
X158888630Y-44450000D01*
M02*
