%FSLAX45Y45*%
G04 Gerber Fmt 4.5, Leading zero omitted, Abs format (unit mm)*
G04 Created by KiCad (PCBNEW 5.1.5-52549c5~86~ubuntu18.04.1) date 2020-04-26 19:42:43*
%MOMM*%
%LPD*%
G04 APERTURE LIST*
%TA.AperFunction,Profile*%
%ADD10C,0.050000*%
%TD*%
%ADD11C,0.200000*%
%ADD12C,0.300000*%
G04 APERTURE END LIST*
D10*
X11049000Y-10604500D02*
X18669000Y-10604500D01*
X18669000Y-2794000D02*
X18669000Y-10604500D01*
X11049000Y-2794000D02*
X18669000Y-2794000D01*
X11049000Y-10604500D02*
X11049000Y-2794000D01*
D11*
X14257500Y-7517000D02*
X14317500Y-7577000D01*
X14317500Y-7517000D02*
X14257500Y-7577000D01*
X14257500Y-7717000D02*
X14317500Y-7777000D01*
X14317500Y-7717000D02*
X14257500Y-7777000D01*
X16353000Y-4161000D02*
X16413000Y-4221000D01*
X16413000Y-4161000D02*
X16353000Y-4221000D01*
X16553000Y-4161000D02*
X16613000Y-4221000D01*
X16613000Y-4161000D02*
X16553000Y-4221000D01*
X14581500Y-5588000D02*
G75*
G03X14581500Y-5588000I-40000J0D01*
G01*
X16550000Y-6985000D02*
G75*
G03X16550000Y-6985000I-40000J0D01*
G01*
X17312000Y-3683000D02*
G75*
G03X17312000Y-3683000I-40000J0D01*
G01*
X17312000Y-4191000D02*
G75*
G03X17312000Y-4191000I-40000J0D01*
G01*
X17883500Y-8255000D02*
G75*
G03X17883500Y-8255000I-40000J0D01*
G01*
X18328000Y-8255000D02*
G75*
G03X18328000Y-8255000I-40000J0D01*
G01*
X15407000Y-8255000D02*
G75*
G03X15407000Y-8255000I-40000J0D01*
G01*
X16423000Y-8255000D02*
G75*
G03X16423000Y-8255000I-40000J0D01*
G01*
X15407000Y-8763000D02*
G75*
G03X15407000Y-8763000I-40000J0D01*
G01*
X16423000Y-8763000D02*
G75*
G03X16423000Y-8763000I-40000J0D01*
G01*
X13760000Y-4064000D02*
G75*
G03X13760000Y-4064000I-40000J0D01*
G01*
X14010000Y-4064000D02*
G75*
G03X14010000Y-4064000I-40000J0D01*
G01*
X14010000Y-5588000D02*
G75*
G03X14010000Y-5588000I-40000J0D01*
G01*
X14010000Y-6604000D02*
G75*
G03X14010000Y-6604000I-40000J0D01*
G01*
X16740500Y-8255000D02*
G75*
G03X16740500Y-8255000I-40000J0D01*
G01*
X17240500Y-8255000D02*
G75*
G03X17240500Y-8255000I-40000J0D01*
G01*
X16169000Y-9271000D02*
G75*
G03X16169000Y-9271000I-40000J0D01*
G01*
X17185000Y-9271000D02*
G75*
G03X17185000Y-9271000I-40000J0D01*
G01*
X15026000Y-4064000D02*
G75*
G03X15026000Y-4064000I-40000J0D01*
G01*
X16042000Y-4064000D02*
G75*
G03X16042000Y-4064000I-40000J0D01*
G01*
X15026000Y-4445000D02*
G75*
G03X15026000Y-4445000I-40000J0D01*
G01*
X16042000Y-4445000D02*
G75*
G03X16042000Y-4445000I-40000J0D01*
G01*
X15089500Y-7239000D02*
G75*
G03X15089500Y-7239000I-40000J0D01*
G01*
X15089500Y-8255000D02*
G75*
G03X15089500Y-8255000I-40000J0D01*
G01*
X15240000Y-3379000D02*
X15240000Y-3479000D01*
X15190000Y-3429000D02*
X15290000Y-3429000D01*
X15494000Y-3379000D02*
X15494000Y-3479000D01*
X15444000Y-3429000D02*
X15544000Y-3429000D01*
X15748000Y-3379000D02*
X15748000Y-3479000D01*
X15698000Y-3429000D02*
X15798000Y-3429000D01*
X16002000Y-3379000D02*
X16002000Y-3479000D01*
X15952000Y-3429000D02*
X16052000Y-3429000D01*
X16256000Y-3379000D02*
X16256000Y-3479000D01*
X16206000Y-3429000D02*
X16306000Y-3429000D01*
X15367000Y-9475000D02*
X15367000Y-9575000D01*
X15317000Y-9525000D02*
X15417000Y-9525000D01*
X15367000Y-9729000D02*
X15367000Y-9829000D01*
X15317000Y-9779000D02*
X15417000Y-9779000D01*
X15621000Y-9475000D02*
X15621000Y-9575000D01*
X15571000Y-9525000D02*
X15671000Y-9525000D01*
X15621000Y-9729000D02*
X15621000Y-9829000D01*
X15571000Y-9779000D02*
X15671000Y-9779000D01*
X11862500Y-5265000D02*
X11862500Y-5365000D01*
X11812500Y-5315000D02*
X11912500Y-5315000D01*
X12382500Y-8205000D02*
X12382500Y-8305000D01*
X12332500Y-8255000D02*
X12432500Y-8255000D01*
X12882500Y-8205000D02*
X12882500Y-8305000D01*
X12832500Y-8255000D02*
X12932500Y-8255000D01*
X13402500Y-5265000D02*
X13402500Y-5365000D01*
X13352500Y-5315000D02*
X13452500Y-5315000D01*
X15494000Y-7697000D02*
X15494000Y-7797000D01*
X15444000Y-7747000D02*
X15544000Y-7747000D01*
X15748000Y-7697000D02*
X15748000Y-7797000D01*
X15698000Y-7747000D02*
X15798000Y-7747000D01*
X16002000Y-7697000D02*
X16002000Y-7797000D01*
X15952000Y-7747000D02*
X16052000Y-7747000D01*
X16256000Y-7697000D02*
X16256000Y-7797000D01*
X16206000Y-7747000D02*
X16306000Y-7747000D01*
X13277962Y-9634462D02*
X13277962Y-9542538D01*
X13186038Y-9542538D01*
X13186038Y-9634462D01*
X13277962Y-9634462D01*
X13777962Y-9634462D02*
X13777962Y-9542538D01*
X13686038Y-9542538D01*
X13686038Y-9634462D01*
X13777962Y-9634462D01*
X14277962Y-9634462D02*
X14277962Y-9542538D01*
X14186038Y-9542538D01*
X14186038Y-9634462D01*
X14277962Y-9634462D01*
X14777962Y-9634462D02*
X14777962Y-9542538D01*
X14686038Y-9542538D01*
X14686038Y-9634462D01*
X14777962Y-9634462D01*
X12110962Y-9634462D02*
X12110962Y-9542538D01*
X12019038Y-9542538D01*
X12019038Y-9634462D01*
X12110962Y-9634462D01*
X12610962Y-9634462D02*
X12610962Y-9542538D01*
X12519038Y-9542538D01*
X12519038Y-9634462D01*
X12610962Y-9634462D01*
D12*
X11332928Y-11072714D02*
X11332928Y-10772714D01*
X11404357Y-10772714D01*
X11447214Y-10787000D01*
X11475786Y-10815572D01*
X11490071Y-10844143D01*
X11504357Y-10901286D01*
X11504357Y-10944143D01*
X11490071Y-11001286D01*
X11475786Y-11029857D01*
X11447214Y-11058429D01*
X11404357Y-11072714D01*
X11332928Y-11072714D01*
X11632928Y-11072714D02*
X11632928Y-10872714D01*
X11632928Y-10929857D02*
X11647214Y-10901286D01*
X11661500Y-10887000D01*
X11690071Y-10872714D01*
X11718643Y-10872714D01*
X11818643Y-11072714D02*
X11818643Y-10872714D01*
X11818643Y-10772714D02*
X11804357Y-10787000D01*
X11818643Y-10801286D01*
X11832928Y-10787000D01*
X11818643Y-10772714D01*
X11818643Y-10801286D01*
X12004357Y-11072714D02*
X11975786Y-11058429D01*
X11961500Y-11029857D01*
X11961500Y-10772714D01*
X12161500Y-11072714D02*
X12132928Y-11058429D01*
X12118643Y-11029857D01*
X12118643Y-10772714D01*
X12504357Y-11072714D02*
X12504357Y-10772714D01*
X12604357Y-10987000D01*
X12704357Y-10772714D01*
X12704357Y-11072714D01*
X12975786Y-11072714D02*
X12975786Y-10915572D01*
X12961500Y-10887000D01*
X12932928Y-10872714D01*
X12875786Y-10872714D01*
X12847214Y-10887000D01*
X12975786Y-11058429D02*
X12947214Y-11072714D01*
X12875786Y-11072714D01*
X12847214Y-11058429D01*
X12832928Y-11029857D01*
X12832928Y-11001286D01*
X12847214Y-10972714D01*
X12875786Y-10958429D01*
X12947214Y-10958429D01*
X12975786Y-10944143D01*
X13118643Y-10872714D02*
X13118643Y-11172714D01*
X13118643Y-10887000D02*
X13147214Y-10872714D01*
X13204357Y-10872714D01*
X13232928Y-10887000D01*
X13247214Y-10901286D01*
X13261500Y-10929857D01*
X13261500Y-11015572D01*
X13247214Y-11044143D01*
X13232928Y-11058429D01*
X13204357Y-11072714D01*
X13147214Y-11072714D01*
X13118643Y-11058429D01*
X13390071Y-11044143D02*
X13404357Y-11058429D01*
X13390071Y-11072714D01*
X13375786Y-11058429D01*
X13390071Y-11044143D01*
X13390071Y-11072714D01*
X13390071Y-10887000D02*
X13404357Y-10901286D01*
X13390071Y-10915572D01*
X13375786Y-10901286D01*
X13390071Y-10887000D01*
X13390071Y-10915572D01*
X10986500Y-11537000D02*
X11046500Y-11597000D01*
X11046500Y-11537000D02*
X10986500Y-11597000D01*
X11390071Y-11402714D02*
X11418643Y-11402714D01*
X11447214Y-11417000D01*
X11461500Y-11431286D01*
X11475786Y-11459857D01*
X11490071Y-11517000D01*
X11490071Y-11588429D01*
X11475786Y-11645571D01*
X11461500Y-11674143D01*
X11447214Y-11688429D01*
X11418643Y-11702714D01*
X11390071Y-11702714D01*
X11361500Y-11688429D01*
X11347214Y-11674143D01*
X11332928Y-11645571D01*
X11318643Y-11588429D01*
X11318643Y-11517000D01*
X11332928Y-11459857D01*
X11347214Y-11431286D01*
X11361500Y-11417000D01*
X11390071Y-11402714D01*
X11618643Y-11674143D02*
X11632928Y-11688429D01*
X11618643Y-11702714D01*
X11604357Y-11688429D01*
X11618643Y-11674143D01*
X11618643Y-11702714D01*
X11890071Y-11402714D02*
X11832928Y-11402714D01*
X11804357Y-11417000D01*
X11790071Y-11431286D01*
X11761500Y-11474143D01*
X11747214Y-11531286D01*
X11747214Y-11645571D01*
X11761500Y-11674143D01*
X11775786Y-11688429D01*
X11804357Y-11702714D01*
X11861500Y-11702714D01*
X11890071Y-11688429D01*
X11904357Y-11674143D01*
X11918643Y-11645571D01*
X11918643Y-11574143D01*
X11904357Y-11545571D01*
X11890071Y-11531286D01*
X11861500Y-11517000D01*
X11804357Y-11517000D01*
X11775786Y-11531286D01*
X11761500Y-11545571D01*
X11747214Y-11574143D01*
X12104357Y-11402714D02*
X12132928Y-11402714D01*
X12161500Y-11417000D01*
X12175786Y-11431286D01*
X12190071Y-11459857D01*
X12204357Y-11517000D01*
X12204357Y-11588429D01*
X12190071Y-11645571D01*
X12175786Y-11674143D01*
X12161500Y-11688429D01*
X12132928Y-11702714D01*
X12104357Y-11702714D01*
X12075786Y-11688429D01*
X12061500Y-11674143D01*
X12047214Y-11645571D01*
X12032928Y-11588429D01*
X12032928Y-11517000D01*
X12047214Y-11459857D01*
X12061500Y-11431286D01*
X12075786Y-11417000D01*
X12104357Y-11402714D01*
X12332928Y-11702714D02*
X12332928Y-11502714D01*
X12332928Y-11531286D02*
X12347214Y-11517000D01*
X12375786Y-11502714D01*
X12418643Y-11502714D01*
X12447214Y-11517000D01*
X12461500Y-11545571D01*
X12461500Y-11702714D01*
X12461500Y-11545571D02*
X12475786Y-11517000D01*
X12504357Y-11502714D01*
X12547214Y-11502714D01*
X12575786Y-11517000D01*
X12590071Y-11545571D01*
X12590071Y-11702714D01*
X12732928Y-11702714D02*
X12732928Y-11502714D01*
X12732928Y-11531286D02*
X12747214Y-11517000D01*
X12775786Y-11502714D01*
X12818643Y-11502714D01*
X12847214Y-11517000D01*
X12861500Y-11545571D01*
X12861500Y-11702714D01*
X12861500Y-11545571D02*
X12875786Y-11517000D01*
X12904357Y-11502714D01*
X12947214Y-11502714D01*
X12975786Y-11517000D01*
X12990071Y-11545571D01*
X12990071Y-11702714D01*
X13575786Y-11388429D02*
X13318643Y-11774143D01*
X13961500Y-11402714D02*
X13990071Y-11402714D01*
X14018643Y-11417000D01*
X14032928Y-11431286D01*
X14047214Y-11459857D01*
X14061500Y-11517000D01*
X14061500Y-11588429D01*
X14047214Y-11645571D01*
X14032928Y-11674143D01*
X14018643Y-11688429D01*
X13990071Y-11702714D01*
X13961500Y-11702714D01*
X13932928Y-11688429D01*
X13918643Y-11674143D01*
X13904357Y-11645571D01*
X13890071Y-11588429D01*
X13890071Y-11517000D01*
X13904357Y-11459857D01*
X13918643Y-11431286D01*
X13932928Y-11417000D01*
X13961500Y-11402714D01*
X14190071Y-11674143D02*
X14204357Y-11688429D01*
X14190071Y-11702714D01*
X14175786Y-11688429D01*
X14190071Y-11674143D01*
X14190071Y-11702714D01*
X14390071Y-11402714D02*
X14418643Y-11402714D01*
X14447214Y-11417000D01*
X14461500Y-11431286D01*
X14475786Y-11459857D01*
X14490071Y-11517000D01*
X14490071Y-11588429D01*
X14475786Y-11645571D01*
X14461500Y-11674143D01*
X14447214Y-11688429D01*
X14418643Y-11702714D01*
X14390071Y-11702714D01*
X14361500Y-11688429D01*
X14347214Y-11674143D01*
X14332928Y-11645571D01*
X14318643Y-11588429D01*
X14318643Y-11517000D01*
X14332928Y-11459857D01*
X14347214Y-11431286D01*
X14361500Y-11417000D01*
X14390071Y-11402714D01*
X14604357Y-11431286D02*
X14618643Y-11417000D01*
X14647214Y-11402714D01*
X14718643Y-11402714D01*
X14747214Y-11417000D01*
X14761500Y-11431286D01*
X14775786Y-11459857D01*
X14775786Y-11488429D01*
X14761500Y-11531286D01*
X14590071Y-11702714D01*
X14775786Y-11702714D01*
X15032928Y-11502714D02*
X15032928Y-11702714D01*
X14961500Y-11388429D02*
X14890071Y-11602714D01*
X15075786Y-11602714D01*
X15175786Y-11402714D02*
X15175786Y-11459857D01*
X15290071Y-11402714D02*
X15290071Y-11459857D01*
X15732928Y-11817000D02*
X15718643Y-11802714D01*
X15690071Y-11759857D01*
X15675786Y-11731286D01*
X15661500Y-11688429D01*
X15647214Y-11617000D01*
X15647214Y-11559857D01*
X15661500Y-11488429D01*
X15675786Y-11445571D01*
X15690071Y-11417000D01*
X15718643Y-11374143D01*
X15732928Y-11359857D01*
X15975786Y-11502714D02*
X15975786Y-11702714D01*
X15904357Y-11388429D02*
X15832928Y-11602714D01*
X16018643Y-11602714D01*
X16361500Y-11702714D02*
X16361500Y-11402714D01*
X16490071Y-11702714D02*
X16490071Y-11545571D01*
X16475786Y-11517000D01*
X16447214Y-11502714D01*
X16404357Y-11502714D01*
X16375786Y-11517000D01*
X16361500Y-11531286D01*
X16675786Y-11702714D02*
X16647214Y-11688429D01*
X16632928Y-11674143D01*
X16618643Y-11645571D01*
X16618643Y-11559857D01*
X16632928Y-11531286D01*
X16647214Y-11517000D01*
X16675786Y-11502714D01*
X16718643Y-11502714D01*
X16747214Y-11517000D01*
X16761500Y-11531286D01*
X16775786Y-11559857D01*
X16775786Y-11645571D01*
X16761500Y-11674143D01*
X16747214Y-11688429D01*
X16718643Y-11702714D01*
X16675786Y-11702714D01*
X16947214Y-11702714D02*
X16918643Y-11688429D01*
X16904357Y-11659857D01*
X16904357Y-11402714D01*
X17175786Y-11688429D02*
X17147214Y-11702714D01*
X17090071Y-11702714D01*
X17061500Y-11688429D01*
X17047214Y-11659857D01*
X17047214Y-11545571D01*
X17061500Y-11517000D01*
X17090071Y-11502714D01*
X17147214Y-11502714D01*
X17175786Y-11517000D01*
X17190071Y-11545571D01*
X17190071Y-11574143D01*
X17047214Y-11602714D01*
X17304357Y-11688429D02*
X17332928Y-11702714D01*
X17390071Y-11702714D01*
X17418643Y-11688429D01*
X17432928Y-11659857D01*
X17432928Y-11645571D01*
X17418643Y-11617000D01*
X17390071Y-11602714D01*
X17347214Y-11602714D01*
X17318643Y-11588429D01*
X17304357Y-11559857D01*
X17304357Y-11545571D01*
X17318643Y-11517000D01*
X17347214Y-11502714D01*
X17390071Y-11502714D01*
X17418643Y-11517000D01*
X17532928Y-11817000D02*
X17547214Y-11802714D01*
X17575786Y-11759857D01*
X17590071Y-11731286D01*
X17604357Y-11688429D01*
X17618643Y-11617000D01*
X17618643Y-11559857D01*
X17604357Y-11488429D01*
X17590071Y-11445571D01*
X17575786Y-11417000D01*
X17547214Y-11374143D01*
X17532928Y-11359857D01*
X11046500Y-11963000D02*
G75*
G03X11046500Y-11963000I-40000J0D01*
G01*
X11390071Y-11798714D02*
X11418643Y-11798714D01*
X11447214Y-11813000D01*
X11461500Y-11827286D01*
X11475786Y-11855857D01*
X11490071Y-11913000D01*
X11490071Y-11984429D01*
X11475786Y-12041571D01*
X11461500Y-12070143D01*
X11447214Y-12084429D01*
X11418643Y-12098714D01*
X11390071Y-12098714D01*
X11361500Y-12084429D01*
X11347214Y-12070143D01*
X11332928Y-12041571D01*
X11318643Y-11984429D01*
X11318643Y-11913000D01*
X11332928Y-11855857D01*
X11347214Y-11827286D01*
X11361500Y-11813000D01*
X11390071Y-11798714D01*
X11618643Y-12070143D02*
X11632928Y-12084429D01*
X11618643Y-12098714D01*
X11604357Y-12084429D01*
X11618643Y-12070143D01*
X11618643Y-12098714D01*
X11804357Y-11927286D02*
X11775786Y-11913000D01*
X11761500Y-11898714D01*
X11747214Y-11870143D01*
X11747214Y-11855857D01*
X11761500Y-11827286D01*
X11775786Y-11813000D01*
X11804357Y-11798714D01*
X11861500Y-11798714D01*
X11890071Y-11813000D01*
X11904357Y-11827286D01*
X11918643Y-11855857D01*
X11918643Y-11870143D01*
X11904357Y-11898714D01*
X11890071Y-11913000D01*
X11861500Y-11927286D01*
X11804357Y-11927286D01*
X11775786Y-11941571D01*
X11761500Y-11955857D01*
X11747214Y-11984429D01*
X11747214Y-12041571D01*
X11761500Y-12070143D01*
X11775786Y-12084429D01*
X11804357Y-12098714D01*
X11861500Y-12098714D01*
X11890071Y-12084429D01*
X11904357Y-12070143D01*
X11918643Y-12041571D01*
X11918643Y-11984429D01*
X11904357Y-11955857D01*
X11890071Y-11941571D01*
X11861500Y-11927286D01*
X12104357Y-11798714D02*
X12132928Y-11798714D01*
X12161500Y-11813000D01*
X12175786Y-11827286D01*
X12190071Y-11855857D01*
X12204357Y-11913000D01*
X12204357Y-11984429D01*
X12190071Y-12041571D01*
X12175786Y-12070143D01*
X12161500Y-12084429D01*
X12132928Y-12098714D01*
X12104357Y-12098714D01*
X12075786Y-12084429D01*
X12061500Y-12070143D01*
X12047214Y-12041571D01*
X12032928Y-11984429D01*
X12032928Y-11913000D01*
X12047214Y-11855857D01*
X12061500Y-11827286D01*
X12075786Y-11813000D01*
X12104357Y-11798714D01*
X12332928Y-12098714D02*
X12332928Y-11898714D01*
X12332928Y-11927286D02*
X12347214Y-11913000D01*
X12375786Y-11898714D01*
X12418643Y-11898714D01*
X12447214Y-11913000D01*
X12461500Y-11941571D01*
X12461500Y-12098714D01*
X12461500Y-11941571D02*
X12475786Y-11913000D01*
X12504357Y-11898714D01*
X12547214Y-11898714D01*
X12575786Y-11913000D01*
X12590071Y-11941571D01*
X12590071Y-12098714D01*
X12732928Y-12098714D02*
X12732928Y-11898714D01*
X12732928Y-11927286D02*
X12747214Y-11913000D01*
X12775786Y-11898714D01*
X12818643Y-11898714D01*
X12847214Y-11913000D01*
X12861500Y-11941571D01*
X12861500Y-12098714D01*
X12861500Y-11941571D02*
X12875786Y-11913000D01*
X12904357Y-11898714D01*
X12947214Y-11898714D01*
X12975786Y-11913000D01*
X12990071Y-11941571D01*
X12990071Y-12098714D01*
X13575786Y-11784429D02*
X13318643Y-12170143D01*
X13961500Y-11798714D02*
X13990071Y-11798714D01*
X14018643Y-11813000D01*
X14032928Y-11827286D01*
X14047214Y-11855857D01*
X14061500Y-11913000D01*
X14061500Y-11984429D01*
X14047214Y-12041571D01*
X14032928Y-12070143D01*
X14018643Y-12084429D01*
X13990071Y-12098714D01*
X13961500Y-12098714D01*
X13932928Y-12084429D01*
X13918643Y-12070143D01*
X13904357Y-12041571D01*
X13890071Y-11984429D01*
X13890071Y-11913000D01*
X13904357Y-11855857D01*
X13918643Y-11827286D01*
X13932928Y-11813000D01*
X13961500Y-11798714D01*
X14190071Y-12070143D02*
X14204357Y-12084429D01*
X14190071Y-12098714D01*
X14175786Y-12084429D01*
X14190071Y-12070143D01*
X14190071Y-12098714D01*
X14390071Y-11798714D02*
X14418643Y-11798714D01*
X14447214Y-11813000D01*
X14461500Y-11827286D01*
X14475786Y-11855857D01*
X14490071Y-11913000D01*
X14490071Y-11984429D01*
X14475786Y-12041571D01*
X14461500Y-12070143D01*
X14447214Y-12084429D01*
X14418643Y-12098714D01*
X14390071Y-12098714D01*
X14361500Y-12084429D01*
X14347214Y-12070143D01*
X14332928Y-12041571D01*
X14318643Y-11984429D01*
X14318643Y-11913000D01*
X14332928Y-11855857D01*
X14347214Y-11827286D01*
X14361500Y-11813000D01*
X14390071Y-11798714D01*
X14590071Y-11798714D02*
X14775786Y-11798714D01*
X14675786Y-11913000D01*
X14718643Y-11913000D01*
X14747214Y-11927286D01*
X14761500Y-11941571D01*
X14775786Y-11970143D01*
X14775786Y-12041571D01*
X14761500Y-12070143D01*
X14747214Y-12084429D01*
X14718643Y-12098714D01*
X14632928Y-12098714D01*
X14604357Y-12084429D01*
X14590071Y-12070143D01*
X15061500Y-12098714D02*
X14890071Y-12098714D01*
X14975786Y-12098714D02*
X14975786Y-11798714D01*
X14947214Y-11841571D01*
X14918643Y-11870143D01*
X14890071Y-11884429D01*
X15175786Y-11798714D02*
X15175786Y-11855857D01*
X15290071Y-11798714D02*
X15290071Y-11855857D01*
X15732928Y-12213000D02*
X15718643Y-12198714D01*
X15690071Y-12155857D01*
X15675786Y-12127286D01*
X15661500Y-12084429D01*
X15647214Y-12013000D01*
X15647214Y-11955857D01*
X15661500Y-11884429D01*
X15675786Y-11841571D01*
X15690071Y-11813000D01*
X15718643Y-11770143D01*
X15732928Y-11755857D01*
X15832928Y-11827286D02*
X15847214Y-11813000D01*
X15875786Y-11798714D01*
X15947214Y-11798714D01*
X15975786Y-11813000D01*
X15990071Y-11827286D01*
X16004357Y-11855857D01*
X16004357Y-11884429D01*
X15990071Y-11927286D01*
X15818643Y-12098714D01*
X16004357Y-12098714D01*
X16261500Y-11898714D02*
X16261500Y-12098714D01*
X16190071Y-11784429D02*
X16118643Y-11998714D01*
X16304357Y-11998714D01*
X16647214Y-12098714D02*
X16647214Y-11798714D01*
X16775786Y-12098714D02*
X16775786Y-11941571D01*
X16761500Y-11913000D01*
X16732928Y-11898714D01*
X16690071Y-11898714D01*
X16661500Y-11913000D01*
X16647214Y-11927286D01*
X16961500Y-12098714D02*
X16932928Y-12084429D01*
X16918643Y-12070143D01*
X16904357Y-12041571D01*
X16904357Y-11955857D01*
X16918643Y-11927286D01*
X16932928Y-11913000D01*
X16961500Y-11898714D01*
X17004357Y-11898714D01*
X17032928Y-11913000D01*
X17047214Y-11927286D01*
X17061500Y-11955857D01*
X17061500Y-12041571D01*
X17047214Y-12070143D01*
X17032928Y-12084429D01*
X17004357Y-12098714D01*
X16961500Y-12098714D01*
X17232928Y-12098714D02*
X17204357Y-12084429D01*
X17190071Y-12055857D01*
X17190071Y-11798714D01*
X17461500Y-12084429D02*
X17432928Y-12098714D01*
X17375786Y-12098714D01*
X17347214Y-12084429D01*
X17332928Y-12055857D01*
X17332928Y-11941571D01*
X17347214Y-11913000D01*
X17375786Y-11898714D01*
X17432928Y-11898714D01*
X17461500Y-11913000D01*
X17475786Y-11941571D01*
X17475786Y-11970143D01*
X17332928Y-11998714D01*
X17590071Y-12084429D02*
X17618643Y-12098714D01*
X17675786Y-12098714D01*
X17704357Y-12084429D01*
X17718643Y-12055857D01*
X17718643Y-12041571D01*
X17704357Y-12013000D01*
X17675786Y-11998714D01*
X17632928Y-11998714D01*
X17604357Y-11984429D01*
X17590071Y-11955857D01*
X17590071Y-11941571D01*
X17604357Y-11913000D01*
X17632928Y-11898714D01*
X17675786Y-11898714D01*
X17704357Y-11913000D01*
X17818643Y-12213000D02*
X17832928Y-12198714D01*
X17861500Y-12155857D01*
X17875786Y-12127286D01*
X17890071Y-12084429D01*
X17904357Y-12013000D01*
X17904357Y-11955857D01*
X17890071Y-11884429D01*
X17875786Y-11841571D01*
X17861500Y-11813000D01*
X17832928Y-11770143D01*
X17818643Y-11755857D01*
X10996500Y-12309000D02*
X10996500Y-12409000D01*
X10946500Y-12359000D02*
X11046500Y-12359000D01*
X11490071Y-12494714D02*
X11318643Y-12494714D01*
X11404357Y-12494714D02*
X11404357Y-12194714D01*
X11375786Y-12237571D01*
X11347214Y-12266143D01*
X11318643Y-12280429D01*
X11618643Y-12466143D02*
X11632928Y-12480429D01*
X11618643Y-12494714D01*
X11604357Y-12480429D01*
X11618643Y-12466143D01*
X11618643Y-12494714D01*
X11818643Y-12194714D02*
X11847214Y-12194714D01*
X11875786Y-12209000D01*
X11890071Y-12223286D01*
X11904357Y-12251857D01*
X11918643Y-12309000D01*
X11918643Y-12380429D01*
X11904357Y-12437571D01*
X11890071Y-12466143D01*
X11875786Y-12480429D01*
X11847214Y-12494714D01*
X11818643Y-12494714D01*
X11790071Y-12480429D01*
X11775786Y-12466143D01*
X11761500Y-12437571D01*
X11747214Y-12380429D01*
X11747214Y-12309000D01*
X11761500Y-12251857D01*
X11775786Y-12223286D01*
X11790071Y-12209000D01*
X11818643Y-12194714D01*
X12104357Y-12194714D02*
X12132928Y-12194714D01*
X12161500Y-12209000D01*
X12175786Y-12223286D01*
X12190071Y-12251857D01*
X12204357Y-12309000D01*
X12204357Y-12380429D01*
X12190071Y-12437571D01*
X12175786Y-12466143D01*
X12161500Y-12480429D01*
X12132928Y-12494714D01*
X12104357Y-12494714D01*
X12075786Y-12480429D01*
X12061500Y-12466143D01*
X12047214Y-12437571D01*
X12032928Y-12380429D01*
X12032928Y-12309000D01*
X12047214Y-12251857D01*
X12061500Y-12223286D01*
X12075786Y-12209000D01*
X12104357Y-12194714D01*
X12332928Y-12494714D02*
X12332928Y-12294714D01*
X12332928Y-12323286D02*
X12347214Y-12309000D01*
X12375786Y-12294714D01*
X12418643Y-12294714D01*
X12447214Y-12309000D01*
X12461500Y-12337571D01*
X12461500Y-12494714D01*
X12461500Y-12337571D02*
X12475786Y-12309000D01*
X12504357Y-12294714D01*
X12547214Y-12294714D01*
X12575786Y-12309000D01*
X12590071Y-12337571D01*
X12590071Y-12494714D01*
X12732928Y-12494714D02*
X12732928Y-12294714D01*
X12732928Y-12323286D02*
X12747214Y-12309000D01*
X12775786Y-12294714D01*
X12818643Y-12294714D01*
X12847214Y-12309000D01*
X12861500Y-12337571D01*
X12861500Y-12494714D01*
X12861500Y-12337571D02*
X12875786Y-12309000D01*
X12904357Y-12294714D01*
X12947214Y-12294714D01*
X12975786Y-12309000D01*
X12990071Y-12337571D01*
X12990071Y-12494714D01*
X13575786Y-12180429D02*
X13318643Y-12566143D01*
X13961500Y-12194714D02*
X13990071Y-12194714D01*
X14018643Y-12209000D01*
X14032928Y-12223286D01*
X14047214Y-12251857D01*
X14061500Y-12309000D01*
X14061500Y-12380429D01*
X14047214Y-12437571D01*
X14032928Y-12466143D01*
X14018643Y-12480429D01*
X13990071Y-12494714D01*
X13961500Y-12494714D01*
X13932928Y-12480429D01*
X13918643Y-12466143D01*
X13904357Y-12437571D01*
X13890071Y-12380429D01*
X13890071Y-12309000D01*
X13904357Y-12251857D01*
X13918643Y-12223286D01*
X13932928Y-12209000D01*
X13961500Y-12194714D01*
X14190071Y-12466143D02*
X14204357Y-12480429D01*
X14190071Y-12494714D01*
X14175786Y-12480429D01*
X14190071Y-12466143D01*
X14190071Y-12494714D01*
X14390071Y-12194714D02*
X14418643Y-12194714D01*
X14447214Y-12209000D01*
X14461500Y-12223286D01*
X14475786Y-12251857D01*
X14490071Y-12309000D01*
X14490071Y-12380429D01*
X14475786Y-12437571D01*
X14461500Y-12466143D01*
X14447214Y-12480429D01*
X14418643Y-12494714D01*
X14390071Y-12494714D01*
X14361500Y-12480429D01*
X14347214Y-12466143D01*
X14332928Y-12437571D01*
X14318643Y-12380429D01*
X14318643Y-12309000D01*
X14332928Y-12251857D01*
X14347214Y-12223286D01*
X14361500Y-12209000D01*
X14390071Y-12194714D01*
X14590071Y-12194714D02*
X14775786Y-12194714D01*
X14675786Y-12309000D01*
X14718643Y-12309000D01*
X14747214Y-12323286D01*
X14761500Y-12337571D01*
X14775786Y-12366143D01*
X14775786Y-12437571D01*
X14761500Y-12466143D01*
X14747214Y-12480429D01*
X14718643Y-12494714D01*
X14632928Y-12494714D01*
X14604357Y-12480429D01*
X14590071Y-12466143D01*
X14918643Y-12494714D02*
X14975786Y-12494714D01*
X15004357Y-12480429D01*
X15018643Y-12466143D01*
X15047214Y-12423286D01*
X15061500Y-12366143D01*
X15061500Y-12251857D01*
X15047214Y-12223286D01*
X15032928Y-12209000D01*
X15004357Y-12194714D01*
X14947214Y-12194714D01*
X14918643Y-12209000D01*
X14904357Y-12223286D01*
X14890071Y-12251857D01*
X14890071Y-12323286D01*
X14904357Y-12351857D01*
X14918643Y-12366143D01*
X14947214Y-12380429D01*
X15004357Y-12380429D01*
X15032928Y-12366143D01*
X15047214Y-12351857D01*
X15061500Y-12323286D01*
X15175786Y-12194714D02*
X15175786Y-12251857D01*
X15290071Y-12194714D02*
X15290071Y-12251857D01*
X15732928Y-12609000D02*
X15718643Y-12594714D01*
X15690071Y-12551857D01*
X15675786Y-12523286D01*
X15661500Y-12480429D01*
X15647214Y-12409000D01*
X15647214Y-12351857D01*
X15661500Y-12280429D01*
X15675786Y-12237571D01*
X15690071Y-12209000D01*
X15718643Y-12166143D01*
X15732928Y-12151857D01*
X16004357Y-12494714D02*
X15832928Y-12494714D01*
X15918643Y-12494714D02*
X15918643Y-12194714D01*
X15890071Y-12237571D01*
X15861500Y-12266143D01*
X15832928Y-12280429D01*
X16104357Y-12194714D02*
X16304357Y-12194714D01*
X16175786Y-12494714D01*
X16647214Y-12494714D02*
X16647214Y-12194714D01*
X16775786Y-12494714D02*
X16775786Y-12337571D01*
X16761500Y-12309000D01*
X16732928Y-12294714D01*
X16690071Y-12294714D01*
X16661500Y-12309000D01*
X16647214Y-12323286D01*
X16961500Y-12494714D02*
X16932928Y-12480429D01*
X16918643Y-12466143D01*
X16904357Y-12437571D01*
X16904357Y-12351857D01*
X16918643Y-12323286D01*
X16932928Y-12309000D01*
X16961500Y-12294714D01*
X17004357Y-12294714D01*
X17032928Y-12309000D01*
X17047214Y-12323286D01*
X17061500Y-12351857D01*
X17061500Y-12437571D01*
X17047214Y-12466143D01*
X17032928Y-12480429D01*
X17004357Y-12494714D01*
X16961500Y-12494714D01*
X17232928Y-12494714D02*
X17204357Y-12480429D01*
X17190071Y-12451857D01*
X17190071Y-12194714D01*
X17461500Y-12480429D02*
X17432928Y-12494714D01*
X17375786Y-12494714D01*
X17347214Y-12480429D01*
X17332928Y-12451857D01*
X17332928Y-12337571D01*
X17347214Y-12309000D01*
X17375786Y-12294714D01*
X17432928Y-12294714D01*
X17461500Y-12309000D01*
X17475786Y-12337571D01*
X17475786Y-12366143D01*
X17332928Y-12394714D01*
X17590071Y-12480429D02*
X17618643Y-12494714D01*
X17675786Y-12494714D01*
X17704357Y-12480429D01*
X17718643Y-12451857D01*
X17718643Y-12437571D01*
X17704357Y-12409000D01*
X17675786Y-12394714D01*
X17632928Y-12394714D01*
X17604357Y-12380429D01*
X17590071Y-12351857D01*
X17590071Y-12337571D01*
X17604357Y-12309000D01*
X17632928Y-12294714D01*
X17675786Y-12294714D01*
X17704357Y-12309000D01*
X17818643Y-12609000D02*
X17832928Y-12594714D01*
X17861500Y-12551857D01*
X17875786Y-12523286D01*
X17890071Y-12480429D01*
X17904357Y-12409000D01*
X17904357Y-12351857D01*
X17890071Y-12280429D01*
X17875786Y-12237571D01*
X17861500Y-12209000D01*
X17832928Y-12166143D01*
X17818643Y-12151857D01*
X11027462Y-12800962D02*
X11027462Y-12709038D01*
X10935538Y-12709038D01*
X10935538Y-12800962D01*
X11027462Y-12800962D01*
X11490071Y-12890714D02*
X11318643Y-12890714D01*
X11404357Y-12890714D02*
X11404357Y-12590714D01*
X11375786Y-12633571D01*
X11347214Y-12662143D01*
X11318643Y-12676429D01*
X11618643Y-12862143D02*
X11632928Y-12876429D01*
X11618643Y-12890714D01*
X11604357Y-12876429D01*
X11618643Y-12862143D01*
X11618643Y-12890714D01*
X11732928Y-12590714D02*
X11918643Y-12590714D01*
X11818643Y-12705000D01*
X11861500Y-12705000D01*
X11890071Y-12719286D01*
X11904357Y-12733571D01*
X11918643Y-12762143D01*
X11918643Y-12833571D01*
X11904357Y-12862143D01*
X11890071Y-12876429D01*
X11861500Y-12890714D01*
X11775786Y-12890714D01*
X11747214Y-12876429D01*
X11732928Y-12862143D01*
X12104357Y-12590714D02*
X12132928Y-12590714D01*
X12161500Y-12605000D01*
X12175786Y-12619286D01*
X12190071Y-12647857D01*
X12204357Y-12705000D01*
X12204357Y-12776429D01*
X12190071Y-12833571D01*
X12175786Y-12862143D01*
X12161500Y-12876429D01*
X12132928Y-12890714D01*
X12104357Y-12890714D01*
X12075786Y-12876429D01*
X12061500Y-12862143D01*
X12047214Y-12833571D01*
X12032928Y-12776429D01*
X12032928Y-12705000D01*
X12047214Y-12647857D01*
X12061500Y-12619286D01*
X12075786Y-12605000D01*
X12104357Y-12590714D01*
X12332928Y-12890714D02*
X12332928Y-12690714D01*
X12332928Y-12719286D02*
X12347214Y-12705000D01*
X12375786Y-12690714D01*
X12418643Y-12690714D01*
X12447214Y-12705000D01*
X12461500Y-12733571D01*
X12461500Y-12890714D01*
X12461500Y-12733571D02*
X12475786Y-12705000D01*
X12504357Y-12690714D01*
X12547214Y-12690714D01*
X12575786Y-12705000D01*
X12590071Y-12733571D01*
X12590071Y-12890714D01*
X12732928Y-12890714D02*
X12732928Y-12690714D01*
X12732928Y-12719286D02*
X12747214Y-12705000D01*
X12775786Y-12690714D01*
X12818643Y-12690714D01*
X12847214Y-12705000D01*
X12861500Y-12733571D01*
X12861500Y-12890714D01*
X12861500Y-12733571D02*
X12875786Y-12705000D01*
X12904357Y-12690714D01*
X12947214Y-12690714D01*
X12975786Y-12705000D01*
X12990071Y-12733571D01*
X12990071Y-12890714D01*
X13575786Y-12576429D02*
X13318643Y-12962143D01*
X13961500Y-12590714D02*
X13990071Y-12590714D01*
X14018643Y-12605000D01*
X14032928Y-12619286D01*
X14047214Y-12647857D01*
X14061500Y-12705000D01*
X14061500Y-12776429D01*
X14047214Y-12833571D01*
X14032928Y-12862143D01*
X14018643Y-12876429D01*
X13990071Y-12890714D01*
X13961500Y-12890714D01*
X13932928Y-12876429D01*
X13918643Y-12862143D01*
X13904357Y-12833571D01*
X13890071Y-12776429D01*
X13890071Y-12705000D01*
X13904357Y-12647857D01*
X13918643Y-12619286D01*
X13932928Y-12605000D01*
X13961500Y-12590714D01*
X14190071Y-12862143D02*
X14204357Y-12876429D01*
X14190071Y-12890714D01*
X14175786Y-12876429D01*
X14190071Y-12862143D01*
X14190071Y-12890714D01*
X14390071Y-12590714D02*
X14418643Y-12590714D01*
X14447214Y-12605000D01*
X14461500Y-12619286D01*
X14475786Y-12647857D01*
X14490071Y-12705000D01*
X14490071Y-12776429D01*
X14475786Y-12833571D01*
X14461500Y-12862143D01*
X14447214Y-12876429D01*
X14418643Y-12890714D01*
X14390071Y-12890714D01*
X14361500Y-12876429D01*
X14347214Y-12862143D01*
X14332928Y-12833571D01*
X14318643Y-12776429D01*
X14318643Y-12705000D01*
X14332928Y-12647857D01*
X14347214Y-12619286D01*
X14361500Y-12605000D01*
X14390071Y-12590714D01*
X14761500Y-12590714D02*
X14618643Y-12590714D01*
X14604357Y-12733571D01*
X14618643Y-12719286D01*
X14647214Y-12705000D01*
X14718643Y-12705000D01*
X14747214Y-12719286D01*
X14761500Y-12733571D01*
X14775786Y-12762143D01*
X14775786Y-12833571D01*
X14761500Y-12862143D01*
X14747214Y-12876429D01*
X14718643Y-12890714D01*
X14647214Y-12890714D01*
X14618643Y-12876429D01*
X14604357Y-12862143D01*
X15061500Y-12890714D02*
X14890071Y-12890714D01*
X14975786Y-12890714D02*
X14975786Y-12590714D01*
X14947214Y-12633571D01*
X14918643Y-12662143D01*
X14890071Y-12676429D01*
X15175786Y-12590714D02*
X15175786Y-12647857D01*
X15290071Y-12590714D02*
X15290071Y-12647857D01*
X15732928Y-13005000D02*
X15718643Y-12990714D01*
X15690071Y-12947857D01*
X15675786Y-12919286D01*
X15661500Y-12876429D01*
X15647214Y-12805000D01*
X15647214Y-12747857D01*
X15661500Y-12676429D01*
X15675786Y-12633571D01*
X15690071Y-12605000D01*
X15718643Y-12562143D01*
X15732928Y-12547857D01*
X15975786Y-12590714D02*
X15918643Y-12590714D01*
X15890071Y-12605000D01*
X15875786Y-12619286D01*
X15847214Y-12662143D01*
X15832928Y-12719286D01*
X15832928Y-12833571D01*
X15847214Y-12862143D01*
X15861500Y-12876429D01*
X15890071Y-12890714D01*
X15947214Y-12890714D01*
X15975786Y-12876429D01*
X15990071Y-12862143D01*
X16004357Y-12833571D01*
X16004357Y-12762143D01*
X15990071Y-12733571D01*
X15975786Y-12719286D01*
X15947214Y-12705000D01*
X15890071Y-12705000D01*
X15861500Y-12719286D01*
X15847214Y-12733571D01*
X15832928Y-12762143D01*
X16361500Y-12890714D02*
X16361500Y-12590714D01*
X16490071Y-12890714D02*
X16490071Y-12733571D01*
X16475786Y-12705000D01*
X16447214Y-12690714D01*
X16404357Y-12690714D01*
X16375786Y-12705000D01*
X16361500Y-12719286D01*
X16675786Y-12890714D02*
X16647214Y-12876429D01*
X16632928Y-12862143D01*
X16618643Y-12833571D01*
X16618643Y-12747857D01*
X16632928Y-12719286D01*
X16647214Y-12705000D01*
X16675786Y-12690714D01*
X16718643Y-12690714D01*
X16747214Y-12705000D01*
X16761500Y-12719286D01*
X16775786Y-12747857D01*
X16775786Y-12833571D01*
X16761500Y-12862143D01*
X16747214Y-12876429D01*
X16718643Y-12890714D01*
X16675786Y-12890714D01*
X16947214Y-12890714D02*
X16918643Y-12876429D01*
X16904357Y-12847857D01*
X16904357Y-12590714D01*
X17175786Y-12876429D02*
X17147214Y-12890714D01*
X17090071Y-12890714D01*
X17061500Y-12876429D01*
X17047214Y-12847857D01*
X17047214Y-12733571D01*
X17061500Y-12705000D01*
X17090071Y-12690714D01*
X17147214Y-12690714D01*
X17175786Y-12705000D01*
X17190071Y-12733571D01*
X17190071Y-12762143D01*
X17047214Y-12790714D01*
X17304357Y-12876429D02*
X17332928Y-12890714D01*
X17390071Y-12890714D01*
X17418643Y-12876429D01*
X17432928Y-12847857D01*
X17432928Y-12833571D01*
X17418643Y-12805000D01*
X17390071Y-12790714D01*
X17347214Y-12790714D01*
X17318643Y-12776429D01*
X17304357Y-12747857D01*
X17304357Y-12733571D01*
X17318643Y-12705000D01*
X17347214Y-12690714D01*
X17390071Y-12690714D01*
X17418643Y-12705000D01*
X17532928Y-13005000D02*
X17547214Y-12990714D01*
X17575786Y-12947857D01*
X17590071Y-12919286D01*
X17604357Y-12876429D01*
X17618643Y-12805000D01*
X17618643Y-12747857D01*
X17604357Y-12676429D01*
X17590071Y-12633571D01*
X17575786Y-12605000D01*
X17547214Y-12562143D01*
X17532928Y-12547857D01*
M02*
