M48
; DRILL file {KiCad 5.1.5-52549c5~86~ubuntu18.04.1} date Sa 09 Mai 2020 23:13:53 CEST
; FORMAT={-:-/ absolute / metric / decimal}
; #@! TF.CreationDate,2020-05-09T23:13:53+02:00
; #@! TF.GenerationSoftware,Kicad,Pcbnew,5.1.5-52549c5~86~ubuntu18.04.1
FMAT,2
METRIC
T1C0.600
T2C0.800
T3C1.000
T4C1.300
%
G90
G05
T1
X142.875Y-75.47
X142.875Y-77.47
X163.83Y-41.91
X165.83Y-41.91
T2
X145.415Y-55.88
X165.1Y-69.85
X172.72Y-36.83
X172.72Y-41.91
X178.435Y-82.55
X182.88Y-82.55
X153.67Y-87.63
X163.83Y-87.63
X153.67Y-82.55
X163.83Y-82.55
X167.005Y-82.55
X172.005Y-82.55
X149.86Y-40.64
X160.02Y-40.64
X137.2Y-40.64
X139.7Y-40.64
X149.86Y-44.45
X160.02Y-44.45
X161.29Y-92.71
X171.45Y-92.71
X139.7Y-55.88
X139.7Y-66.04
X150.495Y-72.39
X150.495Y-82.55
T3
X154.94Y-77.47
X157.48Y-77.47
X160.02Y-77.47
X162.56Y-77.47
X118.625Y-53.15
X123.825Y-82.55
X128.825Y-82.55
X134.025Y-53.15
X152.4Y-34.29
X154.94Y-34.29
X157.48Y-34.29
X160.02Y-34.29
X162.56Y-34.29
X153.67Y-95.25
X153.67Y-97.79
X156.21Y-95.25
X156.21Y-97.79
T4
X120.65Y-95.885
X125.65Y-95.885
X132.32Y-95.885
X137.32Y-95.885
X142.32Y-95.885
X147.32Y-95.885
T0
M30
